<?xml version="1.0" encoding="utf-8"?>
<!-- Generator: Adobe Illustrator 22.1.0, SVG Export Plug-In . SVG Version: 6.00 Build 0)  -->
<svg version="1.1" id="Layer_1" xmlns="http://www.w3.org/2000/svg" xmlns:xlink="http://www.w3.org/1999/xlink" x="0px" y="0px"
	 viewBox="0 0 136.6 22.5" style="enable-background:new 0 0 136.6 22.5;" xml:space="preserve">
<style type="text/css">
	.st0{fill:#FFFFFF;}
</style>
<g>
	<path class="st0" d="M5.2,5.2H0.3C0.1,4.4,0,3.6,0,2.9c0-0.6,0.1-1.4,0.3-2.3h15.1c0.1,0.4,0.1,0.8,0.2,1.2c0,0.4,0.1,0.7,0.1,1.1
		c0,0.6-0.1,1.4-0.2,2.3h-4.9v16.5c-1,0.2-1.9,0.3-2.6,0.3c-0.7,0-1.6-0.1-2.6-0.3V5.2z"/>
	<path class="st0" d="M14.9,6.6c0.9-0.1,1.9-0.2,2.9-0.3c1-0.1,1.9-0.1,2.8-0.1c2.4,0,4.2,0.4,5.3,1.3c1.2,0.9,1.8,2.1,1.8,3.8
		c0,0.6-0.1,1.1-0.2,1.6c-0.1,0.5-0.3,0.8-0.5,1.2c-0.2,0.3-0.4,0.6-0.6,0.8c-0.2,0.2-0.4,0.4-0.5,0.5l3.4,6.4
		c-0.4,0.1-0.8,0.1-1.3,0.2c-0.5,0-0.9,0.1-1.4,0.1c-0.6,0-1.1,0-1.6-0.1c-0.5,0-0.9-0.1-1.3-0.2l-3.3-7l0.4-0.2
		c0.7-0.4,1.2-0.8,1.4-1.3c0.3-0.4,0.4-0.9,0.4-1.4c0-0.5-0.2-0.9-0.5-1.3c-0.3-0.3-0.8-0.5-1.5-0.5c-0.4,0-0.7,0-0.9,0.1v11.6
		c-0.5,0.1-1,0.2-1.4,0.2c-0.4,0-0.8,0-1.1,0c-0.3,0-0.7,0-1.1,0c-0.4,0-0.8-0.1-1.4-0.2V6.6z"/>
	<path class="st0" d="M34.7,15.8c0.2,0.8,0.6,1.4,1.1,1.7c0.5,0.3,1.3,0.5,2.1,0.5c0.6,0,1.2-0.1,1.9-0.2c0.7-0.1,1.4-0.3,2.1-0.6
		c0.3,0.5,0.5,1.1,0.7,1.8c0.2,0.7,0.3,1.4,0.3,2.2c-1.7,0.6-3.5,1-5.4,1c-1.4,0-2.6-0.2-3.6-0.6c-1-0.4-1.8-0.9-2.5-1.6
		c-0.6-0.7-1.1-1.5-1.4-2.5c-0.3-1-0.5-2-0.5-3.2c0-1.1,0.2-2.2,0.5-3.2s0.8-1.8,1.4-2.6C32.2,7.8,33,7.3,34,6.8
		c0.9-0.4,2-0.6,3.3-0.6c1,0,2,0.2,2.8,0.5c0.8,0.4,1.5,0.8,2.1,1.5c0.6,0.6,1,1.4,1.3,2.2c0.3,0.9,0.5,1.8,0.5,2.8
		c0,0.5,0,1-0.1,1.4c0,0.4-0.1,0.8-0.1,1H34.7z M37.1,10c-0.6,0-1.2,0.2-1.6,0.6c-0.5,0.4-0.7,1-0.8,1.8h4.7c0-0.7-0.3-1.3-0.6-1.7
		C38.4,10.2,37.8,10,37.1,10z"/>
	<path class="st0" d="M53.7,12.3c0.6,0.2,1.1,0.3,1.6,0.6c0.5,0.2,0.9,0.5,1.2,0.9c0.3,0.4,0.6,0.8,0.8,1.3c0.2,0.5,0.3,1.1,0.3,1.9
		c0,0.7-0.2,1.4-0.5,2.1c-0.3,0.6-0.8,1.2-1.4,1.7c-0.6,0.5-1.3,0.8-2.2,1.1c-0.9,0.3-1.9,0.4-3,0.4c-0.9,0-1.8-0.1-2.6-0.2
		c-0.8-0.1-1.7-0.4-2.6-0.7c0.1-1.3,0.5-2.7,1.1-4.1c0.6,0.3,1.3,0.5,2,0.7c0.7,0.1,1.4,0.2,2.1,0.2c0.2,0,0.5,0,0.7,0
		c0.3,0,0.5-0.1,0.7-0.1c0.2-0.1,0.4-0.2,0.5-0.3c0.1-0.1,0.2-0.3,0.2-0.5c0-0.3-0.1-0.4-0.4-0.6c-0.3-0.1-0.6-0.2-0.9-0.3l-2-0.6
		c-1-0.3-1.9-0.8-2.6-1.5c-0.7-0.7-1-1.7-1-2.9c0-0.8,0.2-1.5,0.5-2.1c0.3-0.6,0.8-1.2,1.3-1.6c0.6-0.4,1.2-0.8,2-1
		c0.8-0.2,1.6-0.4,2.6-0.4c0.7,0,1.6,0.1,2.4,0.2c0.9,0.2,1.8,0.4,2.6,0.7c0,0.6-0.2,1.3-0.4,2c-0.2,0.7-0.5,1.4-0.7,1.9
		c-0.5-0.2-1.2-0.4-1.9-0.6c-0.7-0.2-1.4-0.3-2.1-0.3c-0.9,0-1.4,0.3-1.4,0.8c0,0.2,0.1,0.4,0.3,0.5c0.2,0.1,0.5,0.2,0.7,0.3
		L53.7,12.3z"/>
	<path class="st0" d="M59.4,14.2c0-1.2,0.2-2.3,0.5-3.2c0.3-1,0.8-1.8,1.5-2.5c0.6-0.7,1.4-1.2,2.4-1.6s2-0.6,3.2-0.6
		c0.4,0,0.8,0,1.2,0c0.4,0,0.7,0.1,1.1,0.1c0.4,0.1,0.7,0.1,1.1,0.3c0.4,0.1,0.8,0.3,1.3,0.4c0,0.7,0,1.3-0.2,2
		c-0.2,0.7-0.4,1.3-0.7,1.9c-0.3-0.1-0.6-0.2-0.9-0.3c-0.3-0.1-0.5-0.1-0.8-0.2c-0.2,0-0.5-0.1-0.7-0.1c-0.2,0-0.5,0-0.7,0
		c-0.9,0-1.7,0.3-2.3,0.8c-0.6,0.6-0.9,1.5-0.9,2.9c0,0.7,0.1,1.3,0.3,1.8c0.2,0.5,0.4,0.9,0.7,1.1c0.3,0.3,0.7,0.5,1.1,0.6
		c0.4,0.1,0.8,0.2,1.3,0.2c0.6,0,1.1,0,1.5-0.1c0.4-0.1,0.9-0.3,1.5-0.5c0.3,0.5,0.6,1.1,0.8,1.8c0.2,0.7,0.3,1.4,0.3,2.3
		c-0.9,0.4-1.7,0.6-2.5,0.7c-0.7,0.1-1.5,0.1-2.2,0.1c-1.3,0-2.4-0.2-3.3-0.6c-1-0.4-1.8-0.9-2.4-1.6c-0.7-0.7-1.2-1.5-1.5-2.5
		C59.6,16.5,59.4,15.4,59.4,14.2z"/>
	<path class="st0" d="M72.9,14.3c0-1.2,0.2-2.3,0.5-3.3c0.3-1,0.8-1.8,1.4-2.5c0.6-0.7,1.4-1.3,2.4-1.6c0.9-0.4,2-0.6,3.3-0.6
		c1.3,0,2.4,0.2,3.3,0.6c0.9,0.4,1.7,0.9,2.4,1.6c0.6,0.7,1.1,1.6,1.4,2.5c0.3,1,0.5,2.1,0.5,3.3c0,1.2-0.2,2.3-0.5,3.2
		c-0.3,1-0.8,1.8-1.4,2.5c-0.6,0.7-1.4,1.2-2.4,1.6c-0.9,0.4-2,0.6-3.3,0.6c-1.2,0-2.3-0.2-3.3-0.6c-0.9-0.4-1.7-0.9-2.4-1.6
		c-0.6-0.7-1.1-1.5-1.4-2.5C73,16.5,72.9,15.4,72.9,14.3z M83,14.3c0-1.3-0.2-2.2-0.6-2.9c-0.4-0.7-1.1-1-1.9-1
		c-0.9,0-1.5,0.3-1.9,1c-0.4,0.7-0.6,1.6-0.6,2.9c0,1.2,0.2,2.2,0.6,2.9s1.1,1,1.9,1c0.9,0,1.5-0.3,1.9-1C82.8,16.4,83,15.5,83,14.3
		z"/>
	<path class="st0" d="M102.2,11.3c0,4.2,1.7,6.2,5.2,6.2c0.6,0,1.2-0.1,1.8-0.2c0.6-0.1,1.2-0.3,2-0.6c0.6,1.4,1.1,2.9,1.3,4.4
		c-0.6,0.2-1.1,0.4-1.6,0.5c-0.5,0.1-1,0.2-1.4,0.3c-0.5,0.1-0.9,0.1-1.3,0.1c-0.4,0-0.9,0-1.4,0c-1.7,0-3.1-0.3-4.4-0.8
		c-1.3-0.5-2.3-1.3-3.2-2.3c-0.9-1-1.5-2.1-1.9-3.4c-0.4-1.3-0.6-2.8-0.6-4.4c0-1.6,0.2-3,0.7-4.4c0.5-1.3,1.1-2.5,2-3.5
		s1.9-1.7,3.2-2.3c1.3-0.5,2.7-0.8,4.3-0.8c0.9,0,1.8,0.1,2.7,0.2c0.8,0.1,1.8,0.4,2.8,0.8c0,0.8-0.2,1.6-0.4,2.3
		c-0.3,0.8-0.5,1.4-0.8,2c-0.4-0.1-0.8-0.3-1.1-0.4c-0.3-0.1-0.6-0.2-0.9-0.2c-0.3-0.1-0.6-0.1-0.9-0.1c-0.3,0-0.6,0-0.9,0
		c-1.6,0-2.8,0.5-3.7,1.6C102.6,7.5,102.2,9.1,102.2,11.3z"/>
	<path class="st0" d="M113.1,14.3c0-1.2,0.2-2.3,0.5-3.3c0.3-1,0.8-1.8,1.4-2.5c0.6-0.7,1.4-1.3,2.4-1.6c0.9-0.4,2-0.6,3.3-0.6
		c1.3,0,2.4,0.2,3.3,0.6c0.9,0.4,1.7,0.9,2.4,1.6c0.6,0.7,1.1,1.6,1.4,2.5c0.3,1,0.5,2.1,0.5,3.3c0,1.2-0.2,2.3-0.5,3.2
		c-0.3,1-0.8,1.8-1.4,2.5c-0.6,0.7-1.4,1.2-2.4,1.6c-0.9,0.4-2,0.6-3.3,0.6c-1.2,0-2.3-0.2-3.3-0.6c-0.9-0.4-1.7-0.9-2.4-1.6
		c-0.6-0.7-1.1-1.5-1.4-2.5C113.3,16.5,113.1,15.4,113.1,14.3z M123.3,14.3c0-1.3-0.2-2.2-0.6-2.9c-0.4-0.7-1.1-1-1.9-1
		c-0.9,0-1.5,0.3-1.9,1c-0.4,0.7-0.6,1.6-0.6,2.9c0,1.2,0.2,2.2,0.6,2.9s1.1,1,1.9,1c0.9,0,1.5-0.3,1.9-1
		C123,16.4,123.3,15.5,123.3,14.3z"/>
	<path class="st0" d="M133.6,16.5c0.4,0,0.8,0,1.2,0.1s0.8,0.1,1.3,0.1c0.1,0.5,0.1,0.9,0.2,1.3c0,0.4,0.1,0.8,0.1,1.2
		c0,0.4,0,0.8-0.1,1.2c0,0.4-0.1,0.8-0.2,1.3c-0.5,0.1-0.9,0.1-1.3,0.2c-0.4,0-0.8,0.1-1.2,0.1c-0.4,0-0.8,0-1.2-0.1
		c-0.4,0-0.8-0.1-1.3-0.2c-0.1-0.5-0.1-0.9-0.2-1.3s-0.1-0.8-0.1-1.2c0-0.4,0-0.8,0.1-1.2s0.1-0.8,0.2-1.3c0.5-0.1,0.9-0.1,1.3-0.1
		C132.8,16.5,133.2,16.5,133.6,16.5z"/>
</g>
</svg>
