<?xml version="1.0" encoding="utf-8"?>
<!-- Generator: Adobe Illustrator 22.1.0, SVG Export Plug-In . SVG Version: 6.00 Build 0)  -->
<svg version="1.1" id="Layer_1" xmlns="http://www.w3.org/2000/svg" xmlns:xlink="http://www.w3.org/1999/xlink" x="0px" y="0px"
	 viewBox="0 0 135.5 27.8" style="enable-background:new 0 0 135.5 27.8;" xml:space="preserve">
<style type="text/css">
	.st0{fill:#161B25;}
</style>
<path class="st0" d="M19.7,8.9c0,1.5-0.3,2.8-0.8,3.8c-0.6,1-1.3,1.9-2.3,2.5c-1,0.6-2.1,1.1-3.3,1.4c-1.2,0.3-2.5,0.4-3.9,0.4H6.3
	v9.8H0V0.9h9.5c1.4,0,2.7,0.1,4,0.4c1.2,0.3,2.3,0.7,3.2,1.4c0.9,0.6,1.6,1.4,2.2,2.5C19.4,6.2,19.7,7.4,19.7,8.9z M13.4,8.9
	c0-0.6-0.1-1.1-0.4-1.5c-0.2-0.4-0.6-0.7-1-0.9c-0.4-0.2-0.9-0.4-1.4-0.4C10.1,6,9.6,6,9,6H6.3v6.1h2.6c0.6,0,1.1,0,1.7-0.1
	s1-0.3,1.4-0.5c0.4-0.2,0.8-0.6,1-1C13.3,10,13.4,9.5,13.4,8.9z"/>
<path class="st0" d="M48.6,13.8c0,2.1-0.4,3.9-1.1,5.6c-0.7,1.7-1.7,3.2-3,4.4c-1.3,1.2-2.8,2.1-4.5,2.8c-1.7,0.7-3.6,1-5.6,1
	c-2,0-3.9-0.3-5.6-1c-1.7-0.7-3.2-1.6-4.5-2.8c-1.3-1.2-2.2-2.7-3-4.4c-0.7-1.7-1.1-3.6-1.1-5.6c0-2.1,0.4-4,1.1-5.6
	c0.7-1.7,1.7-3.1,3-4.3c1.3-1.2,2.7-2.1,4.5-2.7c1.7-0.6,3.6-1,5.6-1c2,0,3.9,0.3,5.6,1c1.7,0.6,3.2,1.5,4.5,2.7
	c1.3,1.2,2.2,2.6,3,4.3C48.2,9.8,48.6,11.7,48.6,13.8z M41.9,13.8c0-1.1-0.2-2.2-0.5-3.2c-0.4-1-0.9-1.8-1.5-2.5
	c-0.6-0.7-1.4-1.2-2.3-1.6c-0.9-0.4-1.9-0.6-3-0.6c-1.1,0-2.1,0.2-3,0.6c-0.9,0.4-1.7,1-2.3,1.6c-0.7,0.7-1.2,1.5-1.5,2.5
	c-0.4,1-0.5,2-0.5,3.2c0,1.2,0.2,2.3,0.5,3.2c0.4,1,0.9,1.8,1.5,2.5c0.6,0.7,1.4,1.3,2.3,1.7c0.9,0.4,1.9,0.6,3,0.6
	c1.1,0,2.1-0.2,3-0.6c0.9-0.4,1.7-1,2.3-1.7c0.7-0.7,1.2-1.6,1.5-2.5C41.7,16,41.9,14.9,41.9,13.8z"/>
<path class="st0" d="M77.3,26.9h-6.2L66,9.3h-0.1l-5.1,17.6h-6.2L47.2,0.9h6.7L58,18.2h0.1l4.6-17.3h6.5l4.7,17.3H74l4.2-17.3h6.5
	L77.3,26.9z"/>
<path class="st0" d="M86.2,26.9V0.9h17.4v5.3H92.2v4.9H103v5H92.2v5.4h12.1v5.4H86.2z"/>
<path class="st0" d="M119.9,26.9l-5.6-10.3h-2.1v10.3H106V0.9h9.9c1.2,0,2.5,0.1,3.6,0.4c1.2,0.3,2.2,0.7,3.2,1.3
	c0.9,0.6,1.7,1.4,2.3,2.4c0.6,1,0.8,2.2,0.8,3.7c0,1.8-0.5,3.2-1.4,4.4c-1,1.2-2.3,2.1-4,2.6l6.8,11.1H119.9z M119.7,8.9
	c0-0.6-0.1-1.1-0.4-1.5c-0.3-0.4-0.6-0.7-1-0.9c-0.4-0.2-0.9-0.3-1.4-0.4c-0.5-0.1-1-0.1-1.5-0.1h-3.4v6h3c0.5,0,1,0,1.6-0.1
	c0.5-0.1,1-0.2,1.5-0.5c0.4-0.2,0.8-0.5,1.1-1C119.5,10.1,119.7,9.5,119.7,8.9z"/>
<path class="st0" d="M134.9,23.6c0,1-0.4,1.9-1.1,2.6s-1.6,1-2.6,1c-0.5,0-1-0.1-1.4-0.3c-0.5-0.2-0.8-0.4-1.2-0.8
	c-0.3-0.3-0.6-0.7-0.8-1.1c-0.2-0.4-0.3-0.9-0.3-1.4c0-0.5,0.1-1,0.3-1.4c0.2-0.4,0.5-0.8,0.8-1.2c0.3-0.3,0.7-0.6,1.2-0.8
	c0.5-0.2,0.9-0.3,1.4-0.3c1,0,1.9,0.3,2.6,1C134.6,21.7,134.9,22.6,134.9,23.6z"/>
</svg>
