<?xml version="1.0" encoding="utf-8"?>
<!-- Generator: Adobe Illustrator 23.1.1, SVG Export Plug-In . SVG Version: 6.00 Build 0)  -->
<svg version="1.1" id="Layer_1" xmlns="http://www.w3.org/2000/svg" xmlns:xlink="http://www.w3.org/1999/xlink" x="0px" y="0px"
	 viewBox="0 0 47.44 42.27" style="enable-background:new 0 0 47.44 42.27;" xml:space="preserve">
<style type="text/css">
	.st0{fill:none;stroke:#3E35F1;stroke-width:2;stroke-linecap:round;stroke-miterlimit:10;}
</style>
<g>
	<path class="st0" d="M24.4,21.47l1.41-1.41c0.45-0.45,1.43-0.86,2.12-0.71l1.41-1.41c0.66-0.66,2.03-0.8,2.83,0l1.41-1.41
		c0.66-0.66,2.03-0.8,2.83,0l6.36,6.36c1.43,1.43,1.17,4,2.12,4.95l1.54,1.54"/>
	<line class="st0" x1="27.93" y1="19.35" x2="31.47" y2="22.88"/>
	<line class="st0" x1="32.17" y1="17.93" x2="35" y2="20.76"/>
	<path class="st0" d="M28.64,25.71l-8.49-8.49c-0.77-0.79-2.04-0.77-2.83,0c-0.79,0.77-0.8,2.02-0.02,2.81c0,0,8.5,8.5,10.8,10.8
		c0.19,0.19,0.04,0.52-0.23,0.51c-1.08-0.07-3.49-0.23-4.89,0.03c-0.89,0.16-1.64,0.85-1.95,1.71c-0.43,1.21,0.49,2.47,1.77,2.53
		c3.85,0.2,6.51,1.56,10.08,1.42c1.49,0,1.72,0.31,2.12,0.71c0.4,0.4,3.54,3.54,3.54,3.54"/>
	<path class="st0" d="M18,25c-3.87,0-7-3.13-7-7s3.13-7,7-7c3.16,0,5.83,2.09,6.7,4.97"/>
	<path class="st0" d="M18,30c-6.63,0-12-5.37-12-12S11.37,6,18,6c5.25,0,9.72,3.38,11.34,8.08"/>
	<path class="st0" d="M18,35C8.61,35,1,27.39,1,18S8.61,1,18,1c7.37,0,13.65,4.69,16,11.25"/>
</g>
</svg>
