<?xml version="1.0" encoding="utf-8"?>
<!-- Generator: Adobe Illustrator 23.1.1, SVG Export Plug-In . SVG Version: 6.00 Build 0)  -->
<svg version="1.1" id="Layer_1" xmlns="http://www.w3.org/2000/svg" xmlns:xlink="http://www.w3.org/1999/xlink" x="0px" y="0px"
	 viewBox="0 0 48 43" style="enable-background:new 0 0 48 43;" xml:space="preserve">
<style type="text/css">
	.st0{fill:none;stroke:#3E35F1;stroke-width:2;stroke-miterlimit:10;}
</style>
<g>
	<circle class="st0" cx="34" cy="29" r="10"/>
	<line class="st0" x1="48" y1="29" x2="40" y2="29"/>
	<line class="st0" x1="28" y1="29" x2="20" y2="29"/>
	<line class="st0" x1="34" y1="43" x2="34" y2="35"/>
	<line class="st0" x1="34" y1="23" x2="34" y2="15"/>
	<line class="st0" x1="34" y1="28" x2="34" y2="30"/>
	<polyline class="st0" points="21,33 1,33 1,1 42,1 42,18 	"/>
	<path class="st0" d="M24.57,17.86l-7.06,4.23c-0.67,0.4-1.51-0.08-1.51-0.86v-8.47c0-0.78,0.85-1.26,1.51-0.86l7.06,4.23
		C25.22,16.53,25.22,17.47,24.57,17.86z"/>
</g>
</svg>
