<?xml version="1.0" encoding="utf-8"?>
<!-- Generator: Adobe Illustrator 23.1.1, SVG Export Plug-In . SVG Version: 6.00 Build 0)  -->
<svg version="1.1" id="Layer_1" xmlns="http://www.w3.org/2000/svg" xmlns:xlink="http://www.w3.org/1999/xlink" x="0px" y="0px"
	 viewBox="0 0 46.09 44.14" style="enable-background:new 0 0 46.09 44.14;" xml:space="preserve">
<style type="text/css">
	.st0{fill:none;stroke:#3E35F1;stroke-width:2;stroke-miterlimit:10;}
	.st1{fill:none;stroke:#3E35F1;stroke-width:2;stroke-linecap:round;stroke-miterlimit:10;}
</style>
<g>
	<path class="st0" d="M15.97,35.37l2.6-1.5c0.96-0.55,1.28-1.78,0.73-2.73l-1-1.73"/>
	<path class="st0" d="M13.1,32.4l0.37,0.63c0.42,0.73,0.97,1.37,1.61,1.91c0,0,3.88,2.74,5.12,3.76c1.96,1.61,0.72,3.05-0.23,3.6
		l-0.87,0.5c-1.73,1-3.28-0.44-4.1-1.1c-0.82-0.66-5.12-3.76-5.12-3.76c-0.65-0.53-1.2-1.18-1.61-1.91L7.9,35.4"/>
	<path class="st0" d="M28.02,12.24c1.91-1.11,4.39-0.39,5.46,1.46c1.07,1.86,0.45,4.36-1.46,5.46"/>
	<path class="st0" d="M21.38,4.08c-1.56,5.07-4.04,10.86-6.98,12.56L4,22.64c-2.87,1.66-3.85,5.33-2.2,8.2l0.5,0.87
		c1.66,2.87,5.33,3.85,8.2,2.2l10.39-6c2.95-1.7,9.2-0.95,14.37,0.23c0.85,0.19,1.52-0.72,1.08-1.48L23.19,3.89
		C22.76,3.13,21.63,3.25,21.38,4.08z"/>
	<line class="st0" x1="14.39" y1="16.64" x2="20.89" y2="27.9"/>
	<line class="st1" x1="32.93" y1="7.56" x2="34.69" y2="1"/>
	<line class="st1" x1="38.53" y1="17.26" x2="45.09" y2="19.01"/>
	<line class="st1" x1="36.77" y1="11.81" x2="42.32" y2="8.61"/>
</g>
</svg>
