<?xml version="1.0" encoding="utf-8"?>
<!-- Generator: Adobe Illustrator 25.0.0, SVG Export Plug-In . SVG Version: 6.00 Build 0)  -->
<svg version="1.1" id="Layer_1" xmlns="http://www.w3.org/2000/svg" xmlns:xlink="http://www.w3.org/1999/xlink" x="0px" y="0px"
	 viewBox="0 0 356 247" style="enable-background:new 0 0 356 247;" xml:space="preserve">
<style type="text/css">
	.st0{fill-rule:evenodd;clip-rule:evenodd;fill:#FFFFFF;}
	.st1{fill-rule:evenodd;clip-rule:evenodd;fill:#F4F6FA;stroke:#010101;stroke-width:3;}
	.st2{fill:none;stroke:#010101;stroke-width:3;}
	.st3{fill:#161B25;}
</style>
<desc>Created with Sketch.</desc>
<g id="boxed-3-col">
	<rect y="0" class="st0" width="356" height="247"/>
	<rect id="Rectangle-Copy" x="41.5" y="35.5" class="st1" width="273" height="62"/>
	<line id="Line" class="st2" x1="40.5" y1="107.5" x2="61.5" y2="107.5"/>
	<line id="Line-Copy" class="st2" x1="67" y1="107.5" x2="88" y2="107.5"/>
	<line id="Line-Copy-2" class="st2" x1="94" y1="107.5" x2="115" y2="107.5"/>
	<line id="Line-Copy-3" class="st2" x1="121" y1="107.5" x2="142" y2="107.5"/>
	<g id="logo-dark" transform="translate(40.000000, 13.000000)">
		<path id="Shape" class="st3" d="M8,3.4C8,4,7.9,4.6,7.7,5C7.4,5.4,7.1,5.8,6.7,6.1C6.3,6.3,5.9,6.5,5.4,6.7
			c-0.5,0.1-1,0.2-1.6,0.2H2.6V11H0V0h3.9C4.4,0,5,0,5.5,0.2C6,0.3,6.4,0.5,6.8,0.8C7.1,1,7.4,1.4,7.7,1.8C7.9,2.3,8,2.8,8,3.4z
			 M5.4,3.4c0-0.3,0-0.5-0.2-0.6C5.2,2.6,5,2.5,4.9,2.4S4.5,2.2,4.3,2.2c-0.2,0-0.4,0-0.6,0H2.6v2.6h1.1c0.2,0,0.4,0,0.7,0
			c0.2,0,0.4-0.1,0.6-0.2C5,4.4,5.2,4.2,5.3,4.1C5.4,3.9,5.4,3.7,5.4,3.4z"/>
		<path id="Shape_1_" class="st3" d="M21,6c0,0.9-0.2,1.7-0.5,2.5s-0.7,1.4-1.3,1.9c-0.5,0.5-1.2,0.9-1.9,1.2
			C16.6,11.9,15.8,12,15,12s-1.6-0.1-2.4-0.4c-0.7-0.3-1.4-0.7-1.9-1.2c-0.5-0.5-0.9-1.2-1.3-1.9C9.2,7.7,9,6.8,9,6
			C9,5,9.2,4.2,9.5,3.5c0.3-0.7,0.7-1.4,1.3-1.9s1.1-0.9,1.9-1.2C13.4,0.2,14.2,0,15,0s1.6,0.1,2.4,0.4c0.7,0.3,1.4,0.7,1.9,1.2
			c0.5,0.5,0.9,1.1,1.3,1.9C20.8,4.2,21,5,21,6z M18.2,6c0-0.5-0.1-1-0.2-1.4c-0.2-0.4-0.4-0.8-0.6-1.1s-0.6-0.5-1-0.7
			c-0.4-0.2-0.8-0.3-1.3-0.3s-0.9,0.1-1.3,0.3c-0.4,0.2-0.7,0.4-1,0.7c-0.3,0.3-0.5,0.7-0.6,1.1C12,5,12,5.4,12,6s0.1,1,0.2,1.4
			c0.2,0.4,0.4,0.8,0.6,1.1c0.3,0.3,0.6,0.6,1,0.7s0.8,0.3,1.3,0.3s0.9-0.1,1.3-0.3c0.4-0.2,0.7-0.4,1-0.7c0.3-0.3,0.5-0.7,0.6-1.1
			C18.1,6.9,18.2,6.4,18.2,6z"/>
		<polygon id="Path" class="st3" points="32.8,11 30.2,11 28,3.6 28,3.6 25.8,11 23.2,11 20,0 22.9,0 24.6,7.3 24.7,7.3 26.6,0 
			29.4,0 31.4,7.3 31.4,7.3 33.2,0 36,0 		"/>
		<polygon id="Path_1_" class="st3" points="37,11 37,0 44.7,0 44.7,2.2 39.7,2.2 39.7,4.3 44.4,4.3 44.4,6.4 39.7,6.4 39.7,8.7 
			45,8.7 45,11 		"/>
		<path id="Shape_2_" class="st3" d="M51.9,11l-2.4-4.4h-0.9V11H46V0h4.2c0.5,0,1.1,0,1.5,0.2c0.5,0.1,0.9,0.3,1.4,0.6
			c0.4,0.3,0.7,0.6,1,1c0.3,0.4,0.3,0.9,0.3,1.6c0,0.8-0.2,1.4-0.6,1.9c-0.4,0.5-1,0.9-1.7,1.1L55,11L51.9,11L51.9,11z M51.8,3.4
			c0-0.3,0-0.5-0.2-0.6c-0.1-0.2-0.3-0.3-0.4-0.4s-0.4-0.1-0.6-0.2c-0.2,0-0.4,0-0.6,0h-1.4v2.5h1.3c0.2,0,0.4,0,0.7,0
			c0.2,0,0.4-0.1,0.6-0.2c0.2-0.1,0.3-0.2,0.5-0.4C51.7,3.9,51.8,3.6,51.8,3.4z"/>
		<path id="Path_2_" class="st3" d="M58,9.5c0,0.4-0.2,0.8-0.4,1.1S56.9,11,56.5,11c-0.2,0-0.4,0-0.6-0.1c-0.2-0.1-0.3-0.2-0.5-0.3
			c-0.1-0.1-0.2-0.3-0.3-0.5C55,9.9,55,9.7,55,9.5s0-0.4,0.1-0.6c0.1-0.2,0.2-0.3,0.3-0.5c0.1-0.1,0.3-0.2,0.5-0.3
			C56.1,8,56.3,8,56.5,8c0.4,0,0.8,0.1,1.1,0.4C57.9,8.7,58,9.1,58,9.5z"/>
	</g>
	<rect id="Rectangle-Copy-4" x="41.5" y="118.5" class="st1" width="130.7" height="86"/>
	<rect id="Rectangle-Copy-7" x="41.5" y="212.5" class="st1" width="130.7" height="33"/>
	<rect id="Rectangle-Copy-5" x="180.7" y="118.5" class="st1" width="133.8" height="86"/>
	<rect id="Rectangle-Copy-8" x="180.7" y="212.5" class="st1" width="133.8" height="33"/>
	<rect id="Rectangle" x="1.5" y="1.5" class="st2" width="353" height="244"/>
</g>
</svg>
