<?xml version="1.0" encoding="UTF-8"?>
<svg width="128px" height="128px" viewBox="0 0 128 128" version="1.1" xmlns="http://www.w3.org/2000/svg" xmlns:xlink="http://www.w3.org/1999/xlink">
    <title>icon-module-mini-icon</title>
    <g id="Page-2" stroke="none" stroke-width="1" fill="none" fill-rule="evenodd">
        <g id="mini-icon" fill="#000000">
            <path d="M128,88 L128,128 L0,128 L0,88 L128,88 Z M32.3636364,95.7272727 L24.5,95.7272727 L24.5,119 L30.6818182,119 L30.6818182,105.454545 L30.8636364,105.454545 L36.0454545,118.818182 L39.7727273,118.818182 L44.9545455,105.545455 L45.1363636,105.545455 L45.1363636,119 L51.3181818,119 L51.3181818,95.7272727 L43.4545455,95.7272727 L38.0454545,108.909091 L37.7727273,108.909091 L32.3636364,95.7272727 Z M63.2252526,95.7272727 L56.9070708,95.7272727 L56.9070708,119 L63.2252526,119 L63.2252526,95.7272727 Z M74.177778,95.7272727 L68.8141416,95.7272727 L68.8141416,119 L75.1323235,119 L75.1323235,106.772727 L75.2686871,106.772727 L83.677778,119 L88.9505053,119 L88.9505053,95.7272727 L82.6323235,95.7272727 L82.6323235,107.909091 L82.4505053,107.909091 L74.177778,95.7272727 Z M100.857576,95.7272727 L94.5393943,95.7272727 L94.5393943,119 L100.857576,119 L100.857576,95.7272727 Z" id="Shape"></path>
            <circle id="Oval" stroke="#000000" stroke-width="8" fill-opacity="0.1" cx="64" cy="40" r="36"></circle>
            <g id="rocket" transform="translate(64.000000, 41.621320) rotate(-45.000000) translate(-64.000000, -41.621320) translate(44.500000, 22.621320)">
                <path d="M37.348891,0.831837687 C29.522469,0.695066561 20.5968399,4.68259616 14.9471154,10.8682331 C9.54797009,10.967555 4.29081963,13.1249567 0.420207103,16.8975602 C0.194685872,17.1141145 0.114500546,17.4381318 0.213061676,17.7312128 C0.313293334,18.025922 0.573895645,18.2392199 0.88795484,18.283182 L7.32616834,19.1819637 L6.53099719,20.049809 C6.23531379,20.3721981 6.25034854,20.8622947 6.56440774,21.1684015 L17.3008888,31.6330208 C17.46293,31.7909589 17.6767576,31.870742 17.8922556,31.870742 C18.0910484,31.870742 18.2898412,31.8023565 18.4485413,31.6639571 L19.3389326,30.8889207 L20.2610638,37.1641102 C20.3061681,37.470217 20.5534061,37.6949125 20.8524306,37.7926061 C20.9292749,37.8170295 21.0094602,37.8284271 21.091316,37.8284271 C21.328531,37.8284271 21.5707575,37.727477 21.7378102,37.5662825 C25.5549659,33.8457822 27.768415,28.7217497 27.8703172,23.4593178 C34.2233338,17.9412542 38.3478665,9.24489013 38.165779,1.6264128 C38.1540853,1.19330423 37.7949218,0.84323528 37.348891,0.831837687 Z M29.6510996,14.8866991 C28.8375527,15.6796459 27.768415,16.0769335 26.6976068,16.0769335 C25.6267986,16.0769335 24.5576609,15.6796459 23.7441139,14.8866991 C22.11702,13.2991771 22.11702,10.716808 23.7441139,9.12928596 C25.3728784,7.54176397 28.0223352,7.54176397 29.6510996,9.12928596 C31.2798641,10.716808 31.2798641,13.3008053 29.6510996,14.8866991 Z" id="Shape" fill-rule="nonzero"></path>
                <path d="M7.71211949,26.1324297 L12.4017187,30.8220289 C12.9875051,31.4078154 12.9875051,32.3575628 12.4017187,32.9433493 C12.2112013,33.1338666 11.9728858,33.2695518 11.7118134,33.3361473 L5.58277191,34.8995718 C4.7800491,35.1043341 3.96332106,34.6195913 3.75855879,33.8168685 C3.69945104,33.5851503 3.69660155,33.3426583 3.75024793,33.1096152 L5.18969024,26.8565915 C5.37553315,26.0492787 6.18064492,25.5454779 6.98795769,25.7313208 C7.2621909,25.7944491 7.51313578,25.933446 7.71211949,26.1324297 Z" id="Path-20"></path>
            </g>
        </g>
    </g>
</svg>