<?xml version="1.0" encoding="UTF-8"?>
<svg width="128px" height="128px" viewBox="0 0 128 128" version="1.1" xmlns="http://www.w3.org/2000/svg" xmlns:xlink="http://www.w3.org/1999/xlink">
    <title>icon-module-mini-CTA</title>
    <g id="Page-2" stroke="none" stroke-width="1" fill="none" fill-rule="evenodd">
        <g id="mini-CTA" fill="#000000">
            <path d="M128,-1.13686838e-13 L128,64 L109.313785,64 L99.932,53.999 L118,54 L118,10 L10,10 L10,54 L83.72,53.999 L81.6404409,64 L0,64 L0,-1.13686838e-13 L128,-1.13686838e-13 Z" id="Rectangle-Copy" fill-rule="nonzero"></path>
            <path d="M96.7165666,66.6614782 L101.447215,79.0915315 L96.7165666,81 L91.8386838,68.3019445 L85,73.362616 L88.8348393,50 L105,66.1902048 L96.7165666,66.6614782 Z" id="Path" fill-rule="nonzero"></path>
            <rect id="Rectangle-Copy-11" fill-rule="nonzero" x="24" y="28" width="80" height="8"></rect>
            <path d="M128,88 L128,128 L0,128 L0,88 L128,88 Z M32.3636364,95.7272727 L24.5,95.7272727 L24.5,119 L30.6818182,119 L30.6818182,105.454545 L30.8636364,105.454545 L36.0454545,118.818182 L39.7727273,118.818182 L44.9545455,105.545455 L45.1363636,105.545455 L45.1363636,119 L51.3181818,119 L51.3181818,95.7272727 L43.4545455,95.7272727 L38.0454545,108.909091 L37.7727273,108.909091 L32.3636364,95.7272727 Z M63.2252526,95.7272727 L56.9070708,95.7272727 L56.9070708,119 L63.2252526,119 L63.2252526,95.7272727 Z M74.177778,95.7272727 L68.8141416,95.7272727 L68.8141416,119 L75.1323235,119 L75.1323235,106.772727 L75.2686871,106.772727 L83.677778,119 L88.9505053,119 L88.9505053,95.7272727 L82.6323235,95.7272727 L82.6323235,107.909091 L82.4505053,107.909091 L74.177778,95.7272727 Z M100.857576,95.7272727 L94.5393943,95.7272727 L94.5393943,119 L100.857576,119 L100.857576,95.7272727 Z" id="Shape"></path>
        </g>
    </g>
</svg>