<?xml version="1.0" encoding="UTF-8"?>
<svg width="128px" height="128px" viewBox="0 0 128 128" version="1.1" xmlns="http://www.w3.org/2000/svg" xmlns:xlink="http://www.w3.org/1999/xlink">
    <!-- Generator: Sketch 55.1 (78136) - https://sketchapp.com -->
    <title>icon-module-map</title>
    <desc>Created with Sketch.</desc>
    <g id="Page-2" stroke="none" stroke-width="1" fill="none" fill-rule="evenodd">
        <g id="map">
            <path d="M119.423373,32.0198869 C110.877875,17.2185809 97.0801291,6.63129083 80.5716334,2.2077741 C64.0636378,-2.21574264 46.8206423,0.0545159501 32.0193962,8.59979828 C17.2184001,17.1450806 6.63090289,30.9431328 2.20765405,47.4514453 C-2.21559478,63.9597577 0.0544046187,81.203073 8.59965237,96.004129 C16.2649003,109.280929 28.4478971,119.371217 42.9043933,124.415736 C49.7571415,126.806745 56.9108896,128 64.0536378,128 C71.8198857,128 79.5721337,126.588495 86.8998817,123.772234 C88.1886314,123.276982 88.8316312,121.830727 88.3361314,120.541972 C87.8406315,119.253217 86.3941319,118.609464 85.1058822,119.105716 C65.6008874,126.602495 44.4853929,123.196232 28.7096471,111.354687 L30.9493965,99.6633928 L32.0286462,99.3128915 C36.1068951,97.9878865 38.3468945,93.5918698 37.0223949,89.5133544 L36.2303951,87.0760952 C36.0471451,86.512093 36.0481451,85.9158408 36.2328951,85.3523387 C36.9276449,83.2343306 36.679395,80.9170719 35.5516453,78.9940646 C34.4238956,77.0713073 32.5226461,75.7230522 30.3348966,75.2953006 L24.6923981,74.1927964 L13.805401,65.9152651 C13.1531512,65.4192632 12.2994014,65.2745127 11.5199016,65.5275137 L5.14590328,67.5980215 C5.01065331,65.3182629 5.00865331,63.0392542 5.13715328,60.7722457 C5.38865321,61.0064965 5.55240317,61.1657471 5.65315314,61.2702475 C5.77790311,61.4779983 5.93240307,61.6684991 6.11340302,61.8334997 C6.63390289,62.3075015 7.10540276,62.5225023 8.0954025,62.5225023 C9.00515226,62.5222523 10.3519019,62.3410016 12.5756513,62.0125004 C14.6846508,61.7007492 16.7826502,61.3494978 16.8034002,61.3459978 C17.64415,61.2052473 18.3548998,60.6452452 18.6893997,59.8614922 C19.0238996,59.0774892 18.9356496,58.1772358 18.4553998,57.4727332 L15.3901506,52.9767162 L19.7806494,49.8372043 C20.0731493,49.6279535 20.3171493,49.3582025 20.4958992,49.0462013 L27.3016474,37.1649063 L30.0448967,34.2253952 C32.848146,31.2208839 33.6481458,26.8251172 32.0826462,23.0261029 C31.1591464,20.7853444 29.5461468,18.9198373 27.5286474,17.6625826 C29.7136468,15.9448261 32.0433962,14.3588201 34.5193955,12.9295647 C43.6038931,7.68454482 53.5178905,5.1427852 63.327638,5.04553483 L58.8636391,10.645306 L42.3098935,16.448578 C41.6376437,16.6840789 41.0976438,17.1955808 40.8261439,17.8540833 L36.2031451,29.0611257 C35.8748952,29.8573787 35.9791452,30.7658821 36.479395,31.4668848 L43.2313932,40.9249206 C42.2643935,41.8071739 41.3231437,43.0921788 40.198894,44.6876848 C39.7058942,45.3874375 39.2403943,46.04819 38.9186444,46.4186914 C38.6388945,46.7411926 38.3588945,47.0561938 38.0813946,47.3681949 C36.629145,49.0019511 35.1276454,50.6917075 34.0608957,52.9487161 C31.7153963,57.9134848 32.1891462,63.6840067 35.2971453,68.008523 C38.3023945,72.1897889 43.2568932,74.3152969 48.5448918,73.6932945 C49.4063916,73.5922942 50.2096414,73.3935434 50.9868912,73.2010427 C53.1301406,72.6707907 53.8091405,72.6177905 54.4966403,73.2612929 C54.8311402,73.5745441 54.8618902,73.6337943 54.8551402,74.6960483 C54.8503902,75.3720509 54.8451402,76.2130541 55.0781401,77.1733077 C55.45139,78.7095635 56.4161398,79.7713175 57.1911396,80.6243208 C57.5763895,81.0480724 57.9748894,81.486574 58.0976393,81.7808251 C58.8773891,83.6493322 58.5378892,84.6840861 57.7938894,86.9515947 C57.7301394,87.1455954 57.6651394,87.3435962 57.5998895,87.546597 C56.4696398,91.0453602 58.0451393,94.5158733 59.435139,97.5773849 C59.8866389,98.5716387 60.3128887,99.5101422 60.5921387,100.339645 C62.8398881,107.009421 64.5248876,108.536926 65.8771373,109.151929 C66.5853871,109.47393 67.3183869,109.61518 68.0588867,109.61493 C71.6626358,109.61468 75.4231348,106.268668 77.1506343,104.14741 C78.235634,102.815405 78.502884,101.48165 78.6978839,100.507396 C78.7951339,100.022894 78.8716339,99.6403927 79.0176338,99.3903918 C79.2411338,99.0078903 79.5043837,98.7113892 79.8376336,98.3358878 C80.5078834,97.5811349 81.3421332,96.6421314 81.8823831,94.9398749 C82.292883,93.64687 82.5911329,93.3298688 83.5788826,92.2778649 C83.7508826,92.0951142 83.9341325,91.8996134 84.1308825,91.6856126 C87.4606316,88.0623489 86.6031318,85.2945884 85.6948821,82.3640773 C84.9306323,79.898318 86.2673819,78.3213121 89.4993811,75.3115507 C90.9003807,74.0067957 92.3488803,72.6577906 93.46863,71.0367845 C93.9586299,70.3272818 95.4493795,68.1690236 94.5268797,66.0297656 C93.62263,63.9322576 91.3243806,63.5797563 89.4778811,63.2967552 C88.7486313,63.1847548 87.6466315,63.0157541 87.2958816,62.7865033 C85.749132,61.7752495 84.8028823,59.6647415 83.8876325,57.6234837 C83.7053826,57.2172322 83.5256326,56.8162307 83.3433827,56.4269792 C83.0183828,55.7324766 82.6936328,54.8922234 82.3498829,54.00272 C81.4403832,51.6487111 80.4096335,48.980451 78.6548839,47.120444 C77.0776343,45.4491877 74.1043851,44.6441846 71.4811358,43.933682 C70.598886,43.6949311 69.7661363,43.4694302 69.2168864,43.2666794 C68.7566365,43.0966788 68.2571367,43.0659287 67.7806368,43.1779291 C66.5038871,43.4771802 65.7073873,43.8069315 65.1158875,44.2809333 C64.9596375,44.4061837 64.4968876,44.8174353 64.2258877,45.4784378 C63.310638,45.0391861 62.0521383,44.200433 61.2776385,43.684181 C61.2616385,43.673431 61.2453885,43.6626809 61.2293885,43.6519309 C61.4903884,42.6074269 61.2541385,41.7691738 61.0066386,41.2456718 C59.6101389,38.2916606 54.9743902,38.5229115 54.0598904,38.6006618 C53.5403905,38.6441619 52.8831407,38.667412 52.1878909,38.6919121 C51.0958912,38.7306623 49.8888915,38.7741624 48.6946418,38.9081629 L48.7561418,38.7366623 C49.6626416,36.2109027 52.0746409,34.5138963 54.7581402,34.5138963 L56.1793898,34.5138963 C57.5596395,34.5138963 58.6791392,33.3943921 58.6791392,32.0141369 C58.6791392,30.6338816 57.5596395,29.5143774 56.1793898,29.5143774 L54.7581402,29.5143774 C50.7741413,29.5143774 47.1258922,31.6111353 45.0811428,34.9113978 L41.3523937,29.6881281 L45.0208928,20.7958444 L61.1966385,15.124823 C61.6401384,14.9693224 62.0311383,14.6918213 62.3243882,14.3240699 L69.5151363,5.30428581 C87.8886315,7.05204242 105.183627,17.3535814 115.094124,34.5191463 C117.733874,39.0914136 119.686623,43.9049318 120.984873,48.8282005 L119.925123,49.773204 C118.541873,51.0074587 117.731374,52.7777154 117.700374,54.6304724 C117.700124,54.6507225 117.699624,54.6707226 117.698874,54.6907227 L115.972374,49.9427047 C115.715124,49.234202 115.336124,48.5844496 114.846624,48.0116974 L111.766875,44.4059337 C110.572876,43.0081785 108.834376,42.2069254 106.996626,42.2069254 L103.226877,42.2069254 C101.888628,42.2069254 100.665628,42.9399282 100.034378,44.1191827 C99.4031284,45.2986871 99.4721284,46.7231925 100.214378,47.8361967 L100.595878,48.4089489 C98.1598788,50.5037068 95.3423795,52.1799632 92.3423803,53.3104674 L87.1748817,43.41218 L87.1748817,41.2039216 C87.1748817,40.520919 86.8953817,39.8671666 86.4011319,39.3959148 L81.7478831,34.953648 C81.4911332,34.7086471 81.1851332,34.5211463 80.8503833,34.4033959 L76.6616344,32.9313903 C75.3583848,32.4728886 73.9318852,33.1586412 73.4743853,34.4608961 C73.0166354,35.763651 73.7013852,37.1904064 75.0038849,37.6481582 L78.6848839,38.9419131 L82.175383,42.2736757 L82.175383,44.0256823 C82.175383,44.4284338 82.272883,44.8254353 82.4593829,45.1826867 L88.9286312,57.5744836 C89.5103811,58.6894878 90.8308807,59.1989897 92.0093804,58.7629881 L93.8931299,58.0684854 C98.2693787,56.4544793 102.325628,53.8582195 105.623627,50.560707 C106.466127,49.7179538 106.597127,48.3981988 105.935877,47.4064451 L105.802877,47.2066943 L106.996626,47.2066943 C107.369876,47.2066943 107.723126,47.369445 107.965626,47.653446 L111.045375,51.2592097 C111.144625,51.3754601 111.221375,51.5069606 111.273875,51.6512112 L114.672624,60.9969965 C114.964624,61.7999995 115.646624,62.3980018 116.480124,62.5830025 C116.660124,62.6227527 116.841374,62.6422527 117.021624,62.6422527 C117.677374,62.6422527 118.315623,62.3840018 118.789123,61.91 L120.406873,60.2922438 C121.431373,59.26749 122.136622,57.9709851 122.473622,56.5337296 C124.975622,76.5850555 117.113374,97.327134 100.494878,110.370683 C99.4086284,111.222937 99.2191285,112.794192 100.071878,113.880447 C100.924128,114.966701 102.495128,115.156201 103.581627,114.303448 C115.579624,104.886663 123.822122,91.4178616 126.790871,76.3780547 C129.78737,61.1932473 127.171121,45.4394377 119.423373,32.0198869 Z" id="Path" fill="#516F90" fill-rule="nonzero"></path>
            <rect id="Rectangle-Copy" stroke="#516F90" stroke-width="10" x="5" y="5" width="118" height="118" rx="59"></rect>
            <polygon id="Path-16" fill="#516F90" points="64 6.52979524 60.5665045 13.0717581 43.493773 18.7910549 40 30 45.1125935 40 48 35 58.4769005 35 76.6775845 37.4231565 80 37.4231565 84.8753235 41.7003775 84.8753235 45 91.4188932 56 104 48 104 45 107.947733 45 113.727284 50 117.719303 60 122.465701 58.7690921 116.135028 35 99.7130384 17.2814948 76.6775845 6.52979524"></polygon>
        </g>
    </g>
</svg>