<?xml version="1.0" encoding="UTF-8"?>
<svg width="128px" height="123px" viewBox="0 0 128 123" version="1.1" xmlns="http://www.w3.org/2000/svg" xmlns:xlink="http://www.w3.org/1999/xlink">
    <title>sub-stats-counter</title>
    <g id="Page-2" stroke="none" stroke-width="1" fill="none" fill-rule="evenodd">
        <g id="sub-stats-counter" fill="#000000">
            <g id="sub-simple-listing-copy" transform="translate(0.000000, 83.000000)">
                <path d="M128,0 L128,40 L0,40 L0,0 L128,0 Z M38.0227273,7.40909091 C36.1818182,7.40909091 34.5511364,7.71969697 33.1306818,8.34090909 C31.7102273,8.96212121 30.6003788,9.82765152 29.8011364,10.9375 C29.0018939,12.0473485 28.6060606,13.3409091 28.6136364,14.8181818 C28.6060606,16.6363636 29.1950758,18.0700758 30.3806818,19.1193182 C31.4872475,20.0986111 32.9749242,20.8155808 34.8437121,21.2702273 L35.25,21.3636364 L37.5681818,21.8636364 C38.4318182,22.0530303 39.1174242,22.2556818 39.625,22.4715909 C40.1325758,22.6875 40.4981061,22.9299242 40.7215909,23.1988636 C40.9450758,23.467803 41.0606061,23.780303 41.0681818,24.1363636 C41.0606061,24.5151515 40.9393939,24.8522727 40.7045455,25.1477273 C40.469697,25.4431818 40.125,25.6742424 39.6704545,25.8409091 C39.2159091,26.0075758 38.6515152,26.0909091 37.9772727,26.0909091 C37.1742424,26.0909091 36.4829545,25.9659091 35.9034091,25.7159091 C35.3238636,25.4659091 34.875,25.0984848 34.5568182,24.6136364 C34.2784091,24.1893939 34.1073035,23.6781487 34.0435014,23.0799006 L34.0227273,22.8181818 L28.0227273,22.8181818 C28.030303,24.7651515 28.4488636,26.3617424 29.2784091,27.6079545 C30.1079545,28.8541667 31.2746212,29.7765152 32.7784091,30.375 C34.282197,30.9734848 36.0454545,31.2727273 38.0681818,31.2727273 C40.0378788,31.2727273 41.7253788,30.9962121 43.1306818,30.4431818 C44.5359848,29.8901515 45.6174242,29.0833333 46.375,28.0227273 C47.1325758,26.9621212 47.5151515,25.6666667 47.5227273,24.1363636 C47.5151515,23.25 47.3731061,22.4318182 47.0965909,21.6818182 C46.8200758,20.9318182 46.3901515,20.2556818 45.8068182,19.6534091 C45.2234848,19.0511364 44.4734848,18.5265152 43.5568182,18.0795455 C42.7420034,17.6822391 41.7805368,17.3537692 40.6724186,17.0941358 L40.25,17 L38.3409091,16.5909091 C37.7878788,16.4772727 37.3106061,16.3484848 36.9090909,16.2045455 C36.5075758,16.0606061 36.1780303,15.8996212 35.9204545,15.7215909 C35.6628788,15.5435606 35.4753788,15.342803 35.3579545,15.1193182 C35.2405303,14.8958333 35.1893939,14.6439394 35.2045455,14.3636364 C35.2121212,14.0227273 35.3143939,13.719697 35.5113636,13.4545455 C35.7083333,13.1893939 36.0132576,12.9791667 36.4261364,12.8238636 C36.8390152,12.6685606 37.3712121,12.5909091 38.0227273,12.5909091 C39.0454545,12.5909091 39.8087121,12.8030303 40.3125,13.2272727 C40.7659091,13.6090909 41.0398295,14.1259091 41.1342614,14.7777273 L41.1590909,15 L47.2045455,15 C47.1969697,13.4772727 46.8200758,12.1458333 46.0738636,11.0056818 C45.3276515,9.8655303 44.2689394,8.98106061 42.8977273,8.35227273 C41.5265152,7.72348485 39.9015152,7.40909091 38.0227273,7.40909091 Z M60.25,7.72727273 L53.9318182,7.72727273 L53.9318182,22.6363636 C53.9318182,24.4090909 54.3503788,25.9412879 55.1875,27.2329545 C56.0246212,28.5246212 57.1969697,29.5208333 58.7045455,30.2215909 C60.2121212,30.9223485 61.969697,31.2727273 63.9772727,31.2727273 C65.969697,31.2727273 67.719697,30.9223485 69.2272727,30.2215909 C70.7348485,29.5208333 71.9109848,28.5246212 72.7556818,27.2329545 C73.5440657,26.027399 73.964537,24.6123148 74.017096,22.987702 L74.0227273,22.6363636 L74.0227273,7.72727273 L67.7045455,7.72727273 L67.7045455,22.0909091 C67.7045455,22.8106061 67.5454545,23.4526515 67.2272727,24.0170455 C66.9090909,24.5814394 66.469697,25.0227273 65.9090909,25.3409091 C65.3484848,25.6590909 64.7045455,25.8181818 63.9772727,25.8181818 C63.2575758,25.8181818 62.6155303,25.6590909 62.0511364,25.3409091 C61.4867424,25.0227273 61.0454545,24.5814394 60.7272727,24.0170455 C60.4488636,23.5232008 60.2922585,22.9699041 60.2574574,22.3571555 L60.25,22.0909091 L60.25,7.72727273 Z M91.1136364,7.72727273 L81.0227273,7.72727273 L81.0227273,31 L91.9772727,31 C93.6666667,31 95.1212121,30.7159091 96.3409091,30.1477273 C97.5606061,29.5795455 98.5018939,28.7992424 99.1647727,27.8068182 C99.8276515,26.8143939 100.159091,25.6818182 100.159091,24.4090909 C100.159091,23.3106061 99.9166667,22.3541667 99.4318182,21.5397727 C98.9469697,20.7253788 98.2954545,20.0852273 97.4772727,19.6193182 C96.75,19.2051768 95.9508979,18.9601337 95.0799663,18.8841891 L94.75,18.8636364 L94.75,18.6363636 C95.6515152,18.4545455 96.4393939,18.1268939 97.1136364,17.6534091 C97.7878788,17.1799242 98.3125,16.5909091 98.6875,15.8863636 C99.0625,15.1818182 99.25,14.4015152 99.25,13.5454545 C99.25,12.3636364 98.9412879,11.3371212 98.3238636,10.4659091 C97.7064394,9.59469697 96.7935606,8.92045455 95.5852273,8.44318182 C94.4775884,8.00568182 93.1328257,7.76870265 91.5509391,7.73224432 L91.1136364,7.72727273 Z M90.3863636,21.0454545 C91.030303,21.0454545 91.5814394,21.1439394 92.0397727,21.3409091 C92.4981061,21.5378788 92.8522727,21.8257576 93.1022727,22.2045455 C93.3522727,22.5833333 93.4772727,23.0454545 93.4772727,23.5909091 C93.4772727,24.3712121 93.2121212,24.9602273 92.6818182,25.3579545 C92.1515152,25.7556818 91.3560606,25.9545455 90.2954545,25.9545455 L87.3409091,25.9545455 L87.3409091,21.0454545 L90.3863636,21.0454545 Z M90.0227273,12.6818182 C90.8106061,12.6818182 91.4621212,12.8731061 91.9772727,13.2556818 C92.4924242,13.6382576 92.75,14.1893939 92.75,14.9090909 C92.75,15.3863636 92.6306818,15.7897727 92.3920455,16.1193182 C92.1534091,16.4488636 91.8219697,16.7007576 91.3977273,16.875 C90.9734848,17.0492424 90.4848485,17.1363636 89.9318182,17.1363636 L87.3409091,17.1363636 L87.3409091,12.6818182 L90.0227273,12.6818182 Z" id="Shape"></path>
            </g>
            <text id="27" font-family="Inter-Black, Inter" font-size="64" font-weight="700" letter-spacing="2">
                <tspan x="22.2727273" y="62">27</tspan>
            </text>
        </g>
    </g>
</svg>