<?xml version="1.0" encoding="UTF-8"?>
<svg width="128px" height="128px" viewBox="0 0 128 128" version="1.1" xmlns="http://www.w3.org/2000/svg" xmlns:xlink="http://www.w3.org/1999/xlink">
    <title>pwr-img_module-icon_page-settings</title>
    <g id="Page-2" stroke="none" stroke-width="1" fill="none" fill-rule="evenodd">
        <g id="page-settings">
            <path d="M64.5,47 C54.8502813,47 47,54.8505 47,64.5 C47,74.1495 54.8505,82 64.5,82 C74.1495,82 82,74.1495 82,64.5 C82,54.8505 74.1497188,47 64.5,47 Z M64.5,73.25 C59.67525,73.25 55.75,69.32475 55.75,64.5 C55.75,59.67525 59.67525,55.75 64.5,55.75 C69.32475,55.75 73.25,59.67525 73.25,64.5 C73.25,69.32475 69.32475,73.25 64.5,73.25 Z" id="Shape" fill="#000000" fill-rule="nonzero"></path>
            <path d="M118.272137,77.6620723 L106.854345,68.9039102 C107.175351,65.8747598 107.15573,62.9405117 106.854345,60.0963105 L118.272137,51.3381484 C120.042305,49.9803828 120.521169,47.5133633 119.387503,45.5908184 L108.330403,26.8359082 C107.228926,24.9674355 104.934035,24.1773184 102.91716,24.9725117 L89.3702716,30.3135273 C86.8961374,28.5410605 84.2480509,27.0391758 81.4544531,25.8242051 L79.4208215,11.7808652 C79.1064287,9.61025 77.2478517,8 75.0570237,8 L52.942823,8 C50.751995,8 48.893418,9.61025 48.5792457,11.7810859 L46.5456141,25.8244258 C43.7520163,27.0396172 41.1039298,28.5412813 38.6297956,30.313748 L25.0829075,24.9727324 C23.0655908,24.1773184 20.7711411,24.9676563 19.6696641,26.8361289 L8.61234331,45.5908184 C7.47889793,47.5133633 7.95776262,49.9803828 9.72771,51.3381484 L21.1457226,60.0960898 C20.8247157,63.1252402 20.8443377,66.0594883 21.1457226,68.9036895 L9.72793048,77.6618516 C7.95776262,79.0196172 7.47889793,81.4866367 8.61256378,83.4091816 L19.6694436,102.164092 C20.7709206,104.032564 23.0655908,104.822682 25.0826871,104.027488 L38.6297956,98.6866934 C41.1034889,100.458719 43.7517958,101.960824 46.5453936,103.175795 L48.5790253,117.219135 C48.893418,119.38975 50.751995,121 52.942823,121 L75.0570237,121 C77.2478517,121 79.1064287,119.38975 79.4208215,117.219355 L81.4544531,103.176016 C84.2480509,101.961045 86.8963579,100.45916 89.3700512,98.6869141 L102.91716,104.027709 C104.934256,104.822902 107.228926,104.032564 108.330403,102.164313 L119.387503,83.4094023 C120.520949,81.4868574 120.042084,79.0198379 118.272137,77.6620723 Z M102.647964,94.433082 L90.2911822,89.561502 C88.8104938,88.9781836 87.1322627,89.2377305 85.8971798,90.2406055 C82.91574,92.6623809 79.569199,94.5568965 75.9508163,95.8718457 C74.4233878,96.4269141 73.3249975,97.7778379 73.0917383,99.3876465 L71.2406573,112.171875 L56.758969,112.171875 L54.9081084,99.3876465 C54.6748493,97.7778379 53.5764589,96.4269141 52.0490305,95.8718457 C48.4306478,94.5566758 45.0841067,92.6621602 42.1026669,90.2406055 C40.8675841,89.2377305 39.1884711,88.9781836 37.7086645,89.561502 L25.3518831,94.433082 L18.1929442,82.2902168 L28.5462986,74.3484355 C29.847523,73.3501953 30.4884344,71.711916 30.2097581,70.0946035 C29.5606892,66.3260977 29.582075,62.5494258 30.2097581,58.9051758 C30.4884344,57.2878633 29.847523,55.6493633 28.5462986,54.6513437 L18.1929442,46.7095625 L25.3518831,34.5666973 L37.7086645,39.4382773 C39.1891325,40.0220371 40.8675841,39.7620488 42.1026669,38.7591738 C45.0843272,36.3376191 48.4308682,34.4431035 52.0490305,33.1281543 C53.5764589,32.5730859 54.6748493,31.2221621 54.9081084,29.6123535 L56.7591894,16.828125 L71.2408778,16.828125 L73.0917383,29.6123535 C73.3249975,31.2221621 74.4233878,32.5730859 75.9508163,33.1281543 C79.5689785,34.4431035 82.9155196,36.3376191 85.8971798,38.7591738 C87.1322627,39.7622695 88.8111552,40.0218164 90.2911822,39.4382773 L102.647964,34.5666973 L109.806682,46.7095625 L99.4533277,54.6513438 C98.1521033,55.649584 97.5111918,57.2878633 97.7898681,58.9051758 C98.438937,62.6736816 98.4175513,66.4503535 97.7898681,70.0946035 C97.5111918,71.711916 98.1521033,73.350416 99.4533277,74.3484355 L109.806682,82.2902168 L102.647964,94.433082 Z" id="Shape" fill="#000000" fill-rule="nonzero"></path>
            <rect id="Rectangle" fill-opacity="0" fill="#D8D8D8" x="0" y="0" width="8" height="8"></rect>
            <rect id="Rectangle-Copy-81" fill-opacity="0" fill="#D8D8D8" x="120" y="120" width="8" height="8"></rect>
        </g>
    </g>
</svg>