<?xml version="1.0" encoding="UTF-8"?>
<svg width="128px" height="128px" viewBox="0 0 128 128" version="1.1" xmlns="http://www.w3.org/2000/svg" xmlns:xlink="http://www.w3.org/1999/xlink">
    <!-- Generator: Sketch 55.1 (78136) - https://sketchapp.com -->
    <title>icon-module-team</title>
    <desc>Created with Sketch.</desc>
    <g id="Page-2" stroke="none" stroke-width="1" fill="none" fill-rule="evenodd">
        <g id="team" stroke="#516F90" stroke-width="10">
            <path d="M55,111.190577 C55,102.602446 51.5024325,95.9191389 45.4173327,91.1149344 C40.5516174,87.2734377 34.2496035,85 30,85 C25.7503965,85 19.4483826,87.2734377 14.5826673,91.1149344 C8.49756745,95.9191389 5,102.602446 5,111.190577 C5,117.753892 15.5331485,123 30,123 C44.4668515,123 55,117.753892 55,111.190577 Z" id="Oval-Copy-2" fill-opacity="0.5" fill="#516F90"></path>
            <path d="M123,111.190577 C123,102.602446 119.502433,95.9191389 113.417333,91.1149344 C108.551617,87.2734377 102.249603,85 98,85 C93.7503965,85 87.4483826,87.2734377 82.5826673,91.1149344 C76.4975675,95.9191389 73,102.602446 73,111.190577 C73,117.753892 83.5331485,123 98,123 C112.466852,123 123,117.753892 123,111.190577 Z" id="Oval-Copy-5" fill-opacity="0.5" fill="#516F90"></path>
            <path d="M84.5887886,53.590415 C79.6441474,46.6377239 70.4979522,42.2136205 64,42.2136205 C57.7608317,42.2136205 48.9727917,46.4149844 43.8302074,53.0495723 C43.9489425,53.2386385 44.0902354,53.4538934 44.2570154,53.6996238 C44.4848348,54.0352885 45.4684655,55.4376245 45.6978857,55.7719698 C48.3599489,59.6515226 49.7090248,62.6704902 49.7090248,66.5 C49.7090248,67.6081272 49.5418061,68.7048726 49.23485,69.814684 C48.8032397,71.3751872 48.2287433,72.66041 47.1668193,74.7113723 C46.7260562,75.5626464 46.4185609,76.1682884 46.2044095,76.6114527 C56.0654763,81.1987821 72.5808666,81.128502 82.2379853,76.400319 C82.0686751,75.9230364 81.783022,75.2122157 81.3119387,74.0856379 C80.515591,72.1812026 80.0909518,71.0159928 79.7646729,69.6134407 C79.5198743,68.5611423 79.3872943,67.5324724 79.3872943,66.5 C79.3872943,62.8553295 80.5239045,60.0942384 82.8389272,56.4531538 C82.9764763,56.2368156 83.66996,55.1618731 83.8430408,54.8869182 C84.1446837,54.4077306 84.3537265,54.0515379 84.5071069,53.7542076 C84.53729,53.6956971 84.5644714,53.6410928 84.5887886,53.590415 Z" id="Oval-Copy-7" fill-opacity="0.5" fill="#516F90"></path>
            <circle id="Oval" cx="30.5" cy="66.5" r="18.5"></circle>
            <circle id="Oval-Copy-6" cx="98.5" cy="66.5" r="18.5"></circle>
            <circle id="Oval-Copy-8" cx="64.5" cy="23.5" r="18.5"></circle>
        </g>
    </g>
</svg>