<?xml version="1.0" encoding="UTF-8"?>
<svg width="128px" height="128px" viewBox="0 0 128 128" version="1.1" xmlns="http://www.w3.org/2000/svg" xmlns:xlink="http://www.w3.org/1999/xlink">
    <title>icon-module-sub-pricing</title>
    <g id="Page-2" stroke="none" stroke-width="1" fill="none" fill-rule="evenodd">
        <g id="sub-pricing" fill="#000000">
            <rect id="Rectangle" fill-opacity="0.3" x="0" y="20" width="32" height="68"></rect>
            <rect id="Rectangle-Copy-60" fill-opacity="0.3" x="96" y="20" width="32" height="68"></rect>
            <path d="M98,0 L98,88 L30,88 L30,0 L98,0 Z M88,10 L40,10 L40,88 L88,88 L88,10 Z" id="Rectangle-Copy-2" fill-rule="nonzero"></path>
            <rect id="Rectangle-Copy-11" x="48" y="16" width="32" height="8"></rect>
            <path d="M66.484,83.084 L66.484,78.744 C68.5093333,78.5373333 70.4313333,78.1033333 72.25,77.442 C74.0686667,76.7806667 75.66,75.8713333 77.024,74.714 C78.388,73.5566667 79.4626667,72.1513333 80.248,70.498 C81.0333333,68.8446667 81.426,66.9226667 81.426,64.732 C81.426,61.8386667 80.6096667,59.4516667 78.977,57.571 C77.3443333,55.6903333 75.164,54.3366667 72.436,53.51 L72.436,53.51 L66.484,51.774 L66.484,41.916 C67.8066667,41.9986667 69.1086667,42.2363333 70.39,42.629 C71.6713333,43.0216667 72.808,43.652 73.8,44.52 L73.8,44.52 L79.752,37.266 C77.9333333,35.8193333 75.8253333,34.8066667 73.428,34.228 C71.0306667,33.6493333 68.716,33.36 66.484,33.36 L66.484,33.36 L66.484,29.02 L62.392,29.02 L62.392,33.36 C60.5733333,33.5666667 58.8063333,34.0213333 57.091,34.724 C55.3756667,35.4266667 53.867,36.336 52.565,37.452 C51.263,38.568 50.2193333,39.9113333 49.434,41.482 C48.6486667,43.0526667 48.256,44.8093333 48.256,46.752 C48.256,49.8933333 49.0723333,52.363 50.705,54.161 C52.3376667,55.959 54.7246667,57.354 57.866,58.346 L57.866,58.346 L62.392,59.71 L62.392,70.188 C60.6973333,70.064 59.0853333,69.723 57.556,69.165 C56.0266667,68.607 54.7246667,67.6666667 53.65,66.344 L53.65,66.344 L47.078,73.722 C49.1446667,75.582 51.5316667,76.884 54.239,77.628 C56.9463333,78.372 59.664,78.744 62.392,78.744 L62.392,78.744 L62.392,83.084 L66.484,83.084 Z M62.392,50.782 C62.144,50.6993333 61.772,50.596 61.276,50.472 C60.78,50.348 60.284,50.131 59.788,49.821 C59.292,49.511 58.858,49.0873333 58.486,48.55 C58.114,48.0126667 57.928,47.2686667 57.928,46.318 C57.928,44.9953333 58.3826667,44.024 59.292,43.404 C60.2013333,42.784 61.2346667,42.35 62.392,42.102 L62.392,42.102 L62.392,50.782 Z M66.484,70.064 L66.484,60.764 L67.662,61.198 C68.1993333,61.4046667 68.716,61.6216667 69.212,61.849 C69.708,62.0763333 70.142,62.345 70.514,62.655 C70.886,62.965 71.1856667,63.3473333 71.413,63.802 C71.6403333,64.2566667 71.754,64.8146667 71.754,65.476 C71.754,66.1786667 71.599,66.7883333 71.289,67.305 C70.979,67.8216667 70.576,68.266 70.08,68.638 C69.584,69.01 69.0156667,69.3096667 68.375,69.537 C67.7343333,69.7643333 67.104,69.94 66.484,70.064 L66.484,70.064 Z" id="$" fill-rule="nonzero"></path>
            <polygon id="Path-10-Copy" fill-rule="nonzero" transform="translate(112.949117, 59.000000) scale(-1, 1) translate(-112.949117, -59.000000) " points="127.898234 20 127.898234 30 107.999 30 107.999 88 127.898234 88 127.898234 98 98 98 98 20"></polygon>
            <polygon id="Path-10-Copy-2" fill-rule="nonzero" points="32 20 32 30 9.999 30 9.999 88 29.8982337 88 29.8982337 98 -4.54747351e-13 98 -4.54747351e-13 20"></polygon>
            <path d="M128,88 L128,128 L0,128 L0,88 L128,88 Z M38.0227273,95.4090909 C36.1818182,95.4090909 34.5511364,95.719697 33.1306818,96.3409091 C31.7102273,96.9621212 30.6003788,97.8276515 29.8011364,98.9375 C29.0018939,100.047348 28.6060606,101.340909 28.6136364,102.818182 C28.6060606,104.636364 29.1950758,106.070076 30.3806818,107.119318 C31.4872475,108.098611 32.9749242,108.815581 34.8437121,109.270227 L35.25,109.363636 L37.5681818,109.863636 C38.4318182,110.05303 39.1174242,110.255682 39.625,110.471591 C40.1325758,110.6875 40.4981061,110.929924 40.7215909,111.198864 C40.9450758,111.467803 41.0606061,111.780303 41.0681818,112.136364 C41.0606061,112.515152 40.9393939,112.852273 40.7045455,113.147727 C40.469697,113.443182 40.125,113.674242 39.6704545,113.840909 C39.2159091,114.007576 38.6515152,114.090909 37.9772727,114.090909 C37.1742424,114.090909 36.4829545,113.965909 35.9034091,113.715909 C35.3238636,113.465909 34.875,113.098485 34.5568182,112.613636 C34.2784091,112.189394 34.1073035,111.678149 34.0435014,111.079901 L34.0227273,110.818182 L28.0227273,110.818182 C28.030303,112.765152 28.4488636,114.361742 29.2784091,115.607955 C30.1079545,116.854167 31.2746212,117.776515 32.7784091,118.375 C34.282197,118.973485 36.0454545,119.272727 38.0681818,119.272727 C40.0378788,119.272727 41.7253788,118.996212 43.1306818,118.443182 C44.5359848,117.890152 45.6174242,117.083333 46.375,116.022727 C47.1325758,114.962121 47.5151515,113.666667 47.5227273,112.136364 C47.5151515,111.25 47.3731061,110.431818 47.0965909,109.681818 C46.8200758,108.931818 46.3901515,108.255682 45.8068182,107.653409 C45.2234848,107.051136 44.4734848,106.526515 43.5568182,106.079545 C42.7420034,105.682239 41.7805368,105.353769 40.6724186,105.094136 L40.25,105 L38.3409091,104.590909 C37.7878788,104.477273 37.3106061,104.348485 36.9090909,104.204545 C36.5075758,104.060606 36.1780303,103.899621 35.9204545,103.721591 C35.6628788,103.543561 35.4753788,103.342803 35.3579545,103.119318 C35.2405303,102.895833 35.1893939,102.643939 35.2045455,102.363636 C35.2121212,102.022727 35.3143939,101.719697 35.5113636,101.454545 C35.7083333,101.189394 36.0132576,100.979167 36.4261364,100.823864 C36.8390152,100.668561 37.3712121,100.590909 38.0227273,100.590909 C39.0454545,100.590909 39.8087121,100.80303 40.3125,101.227273 C40.7659091,101.609091 41.0398295,102.125909 41.1342614,102.777727 L41.1590909,103 L47.2045455,103 C47.1969697,101.477273 46.8200758,100.145833 46.0738636,99.0056818 C45.3276515,97.8655303 44.2689394,96.9810606 42.8977273,96.3522727 C41.5265152,95.7234848 39.9015152,95.4090909 38.0227273,95.4090909 Z M60.25,95.7272727 L53.9318182,95.7272727 L53.9318182,110.636364 C53.9318182,112.409091 54.3503788,113.941288 55.1875,115.232955 C56.0246212,116.524621 57.1969697,117.520833 58.7045455,118.221591 C60.2121212,118.922348 61.969697,119.272727 63.9772727,119.272727 C65.969697,119.272727 67.719697,118.922348 69.2272727,118.221591 C70.7348485,117.520833 71.9109848,116.524621 72.7556818,115.232955 C73.5440657,114.027399 73.964537,112.612315 74.017096,110.987702 L74.0227273,110.636364 L74.0227273,95.7272727 L67.7045455,95.7272727 L67.7045455,110.090909 C67.7045455,110.810606 67.5454545,111.452652 67.2272727,112.017045 C66.9090909,112.581439 66.469697,113.022727 65.9090909,113.340909 C65.3484848,113.659091 64.7045455,113.818182 63.9772727,113.818182 C63.2575758,113.818182 62.6155303,113.659091 62.0511364,113.340909 C61.4867424,113.022727 61.0454545,112.581439 60.7272727,112.017045 C60.4488636,111.523201 60.2922585,110.969904 60.2574574,110.357156 L60.25,110.090909 L60.25,95.7272727 Z M91.1136364,95.7272727 L81.0227273,95.7272727 L81.0227273,119 L91.9772727,119 C93.6666667,119 95.1212121,118.715909 96.3409091,118.147727 C97.5606061,117.579545 98.5018939,116.799242 99.1647727,115.806818 C99.8276515,114.814394 100.159091,113.681818 100.159091,112.409091 C100.159091,111.310606 99.9166667,110.354167 99.4318182,109.539773 C98.9469697,108.725379 98.2954545,108.085227 97.4772727,107.619318 C96.75,107.205177 95.9508979,106.960134 95.0799663,106.884189 L94.75,106.863636 L94.75,106.636364 C95.6515152,106.454545 96.4393939,106.126894 97.1136364,105.653409 C97.7878788,105.179924 98.3125,104.590909 98.6875,103.886364 C99.0625,103.181818 99.25,102.401515 99.25,101.545455 C99.25,100.363636 98.9412879,99.3371212 98.3238636,98.4659091 C97.7064394,97.594697 96.7935606,96.9204545 95.5852273,96.4431818 C94.4775884,96.0056818 93.1328257,95.7687027 91.5509391,95.7322443 L91.1136364,95.7272727 Z M90.3863636,109.045455 C91.030303,109.045455 91.5814394,109.143939 92.0397727,109.340909 C92.4981061,109.537879 92.8522727,109.825758 93.1022727,110.204545 C93.3522727,110.583333 93.4772727,111.045455 93.4772727,111.590909 C93.4772727,112.371212 93.2121212,112.960227 92.6818182,113.357955 C92.1515152,113.755682 91.3560606,113.954545 90.2954545,113.954545 L87.3409091,113.954545 L87.3409091,109.045455 L90.3863636,109.045455 Z M90.0227273,100.681818 C90.8106061,100.681818 91.4621212,100.873106 91.9772727,101.255682 C92.4924242,101.638258 92.75,102.189394 92.75,102.909091 C92.75,103.386364 92.6306818,103.789773 92.3920455,104.119318 C92.1534091,104.448864 91.8219697,104.700758 91.3977273,104.875 C90.9734848,105.049242 90.4848485,105.136364 89.9318182,105.136364 L87.3409091,105.136364 L87.3409091,100.681818 L90.0227273,100.681818 Z" id="Shape"></path>
        </g>
    </g>
</svg>