<?xml version="1.0" encoding="UTF-8"?>
<svg width="113px" height="128px" viewBox="0 0 113 128" version="1.1" xmlns="http://www.w3.org/2000/svg" xmlns:xlink="http://www.w3.org/1999/xlink">
    <!-- Generator: Sketch 55.1 (78136) - https://sketchapp.com -->
    <title>icon-module-coming soon</title>
    <desc>Created with Sketch.</desc>
    <g id="Page-2" stroke="none" stroke-width="1" fill="none" fill-rule="evenodd">
        <g id="coming-soon">
            <rect id="Rectangle-Copy-3" fill="#516F90" x="4" y="67" width="17" height="10"></rect>
            <rect id="Rectangle-Copy-4" fill="#516F90" x="92" y="67" width="17" height="10"></rect>
            <polygon id="Rectangle-Copy-3" fill="#516F90" transform="translate(56.000000, 28.500000) rotate(90.000000) translate(-56.000000, -28.500000) " points="47.5 23.5 64.5 23.5 64.5 33.5 47.5 33.5"></polygon>
            <rect id="Rectangle-Copy-3" stroke="#516F90" stroke-width="10" fill-opacity="0.7" fill="#516F90" transform="translate(56.000000, 10.500000) rotate(90.000000) translate(-56.000000, -10.500000) " x="52.5" y="7.5" width="7" height="6"></rect>
            <polygon id="Rectangle-Copy-5" fill="#516F90" transform="translate(56.000000, 5.000000) rotate(90.000000) translate(-56.000000, -5.000000) " points="51 -11 61 -11 61 21 51 21"></polygon>
            <polygon id="Rectangle-Copy-4" fill="#516F90" transform="translate(56.000000, 116.000000) rotate(90.000000) translate(-56.000000, -116.000000) " points="47.5 111 64.5 111 64.5 121 47.5 121"></polygon>
            <rect id="Rectangle-Copy" stroke="#516F90" stroke-width="10" x="5" y="20" width="103" height="103" rx="51.5"></rect>
            <rect id="Rectangle-Copy" stroke="#516F90" stroke-width="10" x="49.5" y="64.5" width="14" height="14" rx="7"></rect>
        </g>
    </g>
</svg>