<?xml version="1.0" encoding="UTF-8"?>
<svg width="128px" height="128px" viewBox="0 0 128 128" version="1.1" xmlns="http://www.w3.org/2000/svg" xmlns:xlink="http://www.w3.org/1999/xlink">
    <!-- Generator: Sketch 55.1 (78136) - https://sketchapp.com -->
    <title>icon-module-schedule</title>
    <desc>Created with Sketch.</desc>
    <g id="Page-2" stroke="none" stroke-width="1" fill="none" fill-rule="evenodd">
        <g id="schedule" fill="#516F90">
            <rect id="Rectangle-Copy" fill-opacity="0.5" x="0" y="40" width="20" height="17"></rect>
            <rect id="Rectangle-Copy-41" fill-opacity="0.5" x="0" y="64" width="20" height="17"></rect>
            <rect id="Rectangle-Copy-46" fill-opacity="0.5" x="0" y="87" width="20" height="17"></rect>
            <rect id="Rectangle-Copy-51" fill-opacity="0.5" x="0" y="111" width="20" height="17"></rect>
            <rect id="Rectangle-Copy-37" fill-opacity="0.5" x="27" y="40" width="20" height="17"></rect>
            <rect id="Rectangle-Copy-42" fill-opacity="0.5" x="27" y="64" width="20" height="17"></rect>
            <rect id="Rectangle-Copy-47" fill-opacity="0.5" x="27" y="87" width="20" height="17"></rect>
            <rect id="Rectangle-Copy-52" fill-opacity="0.5" x="27" y="111" width="20" height="17"></rect>
            <rect id="Rectangle-Copy-38" fill-opacity="0.5" x="54" y="40" width="20" height="17"></rect>
            <rect id="Rectangle-Copy-43" fill-opacity="0.5" x="54" y="64" width="20" height="17"></rect>
            <rect id="Rectangle-Copy-48" fill-opacity="0.5" x="54" y="87" width="20" height="17"></rect>
            <rect id="Rectangle-Copy-53" fill-opacity="0.5" x="54" y="111" width="20" height="17"></rect>
            <rect id="Rectangle-Copy-39" fill-opacity="0.5" x="81" y="40" width="20" height="17"></rect>
            <rect id="Rectangle-Copy-44" x="81" y="64" width="20" height="17"></rect>
            <rect id="Rectangle-Copy-49" fill-opacity="0.5" x="81" y="87" width="20" height="17"></rect>
            <rect id="Rectangle-Copy-54" fill-opacity="0.5" x="81" y="111" width="20" height="17"></rect>
            <rect id="Rectangle-Copy-40" fill-opacity="0.5" x="108" y="40" width="20" height="17"></rect>
            <rect id="Rectangle-Copy-45" fill-opacity="0.5" x="108" y="64" width="20" height="17"></rect>
            <rect id="Rectangle-Copy-50" fill-opacity="0.5" x="108" y="87" width="20" height="17"></rect>
            <rect id="Rectangle-Copy" x="0" y="0" width="128" height="32"></rect>
        </g>
    </g>
</svg>