<?xml version="1.0" encoding="UTF-8"?>
<svg width="384px" height="384px" viewBox="0 0 384 384" version="1.1" xmlns="http://www.w3.org/2000/svg" xmlns:xlink="http://www.w3.org/1999/xlink">
    <title>pwr-icon_entry_features_language</title>
    <g id="language" stroke="none" stroke-width="1" fill="none" fill-rule="evenodd">
        <rect id="Rectangle" fill-opacity="0" fill="#FFFFFF" x="0" y="0" width="384" height="384"></rect>
        <g id="icon-multi-language-2" transform="translate(32.000000, 32.000000)" fill="#3E35F1" fill-rule="nonzero">
            <path d="M213.125,282.5 L263.125,320 L263.125,282.5 L313.54375,282.5 C317.1125,282.5 320,279.60625 320,276.04375 L320,119.58125 C320,116.0125 317.10625,113.125 313.54375,113.125 L206.875,113.125 L206.875,6.45625 C206.875,2.89375 203.98125,0 200.41875,0 L6.45625,0 C2.89375,0 0,2.89375 0,6.45625 L0,162.9125 C0,166.48125 2.89375,169.375 6.45625,169.375 L56.875,169.375 L56.875,206.875 L106.875,169.375 L113.125,169.375 L113.125,276.04375 C113.125,279.6125 116.01875,282.5 119.58125,282.5 L213.125,282.5 Z M293.59375,256.48125 L244.375,256.48125 L244.375,275.23125 L219.375,256.48125 L139.4,256.48125 L139.4,136.95 L293.5875,136.95 L293.5875,256.48125 L293.59375,256.48125 Z M100.625,141.25 L75.625,160 L75.625,141.25 L26.54375,141.25 L26.54375,26.8125 L179.93125,26.8125 L179.93125,113.125 L147.04375,113.125 L109.525,38.0875 C107.14375,33.325 100.35,33.325 97.975,38.0875 L60.75,112.53125 C59.15625,115.71875 60.45,119.6 63.6375,121.19375 L68.85625,123.80625 C72.04375,125.4 75.925,124.10625 77.51875,120.91875 L86.10625,103.75 L121.39375,103.75 L126.08125,113.125 L119.58125,113.125 C116.0125,113.125 113.125,116.01875 113.125,119.58125 L113.125,141.25 L100.625,141.25 Z M112.01875,85 L95.48125,85 L103.75,68.4625 L112.01875,85 Z" id="Shape"></path>
            <path d="M204.174667,212.959667 C193.990667,221.535 184.370333,226 179.5,226 L179.5,245 C191.742333,245 206.448333,236.044667 217.5,226.551 C228.551667,236.044667 243.257667,245 255.5,245 L255.5,226 C250.629667,226 241.009333,221.535 230.825333,212.959667 C236.341667,206.252667 242.149333,197.474667 244.682667,188 L265,188 L265,169 L227,169 L227,150 L208,150 L208,169 L170,169 L170,188 L190.323667,188 C192.857,197.468333 198.658333,206.252667 204.174667,212.959667 Z M217.5,199.216333 C214.504333,195.359333 212.116667,191.540333 210.489,187.987333 L224.511,187.987333 C222.883333,191.540333 220.495667,195.365667 217.5,199.216333 Z" id="Shape"></path>
        </g>
    </g>
</svg>