<?xml version="1.0" encoding="UTF-8"?>
<svg width="356px" height="247px" viewBox="0 0 356 247" version="1.1" xmlns="http://www.w3.org/2000/svg" xmlns:xlink="http://www.w3.org/1999/xlink">
    <!-- Generator: Sketch 58 (84663) - https://sketch.com -->
    <title>footer-full-navigation</title>
    <desc>Created with Sketch.</desc>
    <g id="full-navigation" stroke="none" stroke-width="1" fill="none" fill-rule="evenodd">
        <rect fill="#FFFFFF" x="0" y="0" width="356" height="247"></rect>
        <rect id="Rectangle-Copy" stroke="#010101" stroke-width="3" fill="#ECEDF1" x="1.5" y="132.5" width="353" height="87"></rect>
        <rect id="Rectangle" stroke="#010101" stroke-width="3" x="1.5" y="1.5" width="353" height="244"></rect>
        <path d="M40,151 L75,151" id="Line-Copy-4" stroke="#010101" stroke-width="3"></path>
        <path d="M40,232 L67,232" id="Line-Copy-34" stroke="#010101" stroke-width="3"></path>
        <path d="M71,232 L98,232" id="Line-Copy-35" stroke="#010101" stroke-width="3"></path>
        <path d="M102,232 L129,232" id="Line-Copy-36" stroke="#010101" stroke-width="3"></path>
        <path d="M86.5,151 L121.5,151" id="Line-Copy-9" stroke="#010101" stroke-width="3"></path>
        <path d="M132.5,151 L167.5,151" id="Line-Copy-14" stroke="#010101" stroke-width="3"></path>
        <path d="M178.5,151 L213.5,151" id="Line-Copy-19" stroke="#010101" stroke-width="3"></path>
        <path d="M224.5,151 L259.5,151" id="Line-Copy-24" stroke="#010101" stroke-width="3"></path>
        <path d="M270.5,151 L305.5,151" id="Line-Copy-29" stroke="#010101" stroke-width="3"></path>
        <path d="M39.5,167 L79.5,167" id="Line-Copy-5" stroke="#010101" stroke-width="3" opacity="0.228143601"></path>
        <path d="M86,167 L126,167" id="Line-Copy-10" stroke="#010101" stroke-width="3" opacity="0.228143601"></path>
        <path d="M132,167 L172,167" id="Line-Copy-15" stroke="#010101" stroke-width="3" opacity="0.228143601"></path>
        <path d="M178,167 L218,167" id="Line-Copy-20" stroke="#010101" stroke-width="3" opacity="0.228143601"></path>
        <path d="M224,167 L264,167" id="Line-Copy-25" stroke="#010101" stroke-width="3" opacity="0.228143601"></path>
        <path d="M270,167 L310,167" id="Line-Copy-30" stroke="#010101" stroke-width="3" opacity="0.228143601"></path>
        <path d="M39.5,178.5 L79.5,178.5" id="Line-Copy-6" stroke="#010101" stroke-width="3" opacity="0.228143601"></path>
        <path d="M86,178.5 L126,178.5" id="Line-Copy-11" stroke="#010101" stroke-width="3" opacity="0.228143601"></path>
        <path d="M132,178.5 L172,178.5" id="Line-Copy-16" stroke="#010101" stroke-width="3" opacity="0.228143601"></path>
        <path d="M178,178.5 L218,178.5" id="Line-Copy-21" stroke="#010101" stroke-width="3" opacity="0.228143601"></path>
        <path d="M224,178.5 L264,178.5" id="Line-Copy-26" stroke="#010101" stroke-width="3" opacity="0.228143601"></path>
        <path d="M270,178.5 L310,178.5" id="Line-Copy-31" stroke="#010101" stroke-width="3" opacity="0.228143601"></path>
        <path d="M39.5,189.5 L79.5,189.5" id="Line-Copy-7" stroke="#010101" stroke-width="3" opacity="0.228143601"></path>
        <path d="M86,189.5 L126,189.5" id="Line-Copy-12" stroke="#010101" stroke-width="3" opacity="0.228143601"></path>
        <path d="M132,189.5 L172,189.5" id="Line-Copy-17" stroke="#010101" stroke-width="3" opacity="0.228143601"></path>
        <path d="M178,189.5 L218,189.5" id="Line-Copy-22" stroke="#010101" stroke-width="3" opacity="0.228143601"></path>
        <path d="M224,189.5 L264,189.5" id="Line-Copy-27" stroke="#010101" stroke-width="3" opacity="0.228143601"></path>
        <path d="M270,189.5 L310,189.5" id="Line-Copy-32" stroke="#010101" stroke-width="3" opacity="0.228143601"></path>
        <path d="M39.5,200.5 L79.5,200.5" id="Line-Copy-8" stroke="#010101" stroke-width="3" opacity="0.228143601"></path>
        <path d="M86,200.5 L126,200.5" id="Line-Copy-13" stroke="#010101" stroke-width="3" opacity="0.228143601"></path>
        <path d="M132,200.5 L172,200.5" id="Line-Copy-18" stroke="#010101" stroke-width="3" opacity="0.228143601"></path>
        <path d="M178,200.5 L218,200.5" id="Line-Copy-23" stroke="#010101" stroke-width="3" opacity="0.228143601"></path>
        <path d="M224,200.5 L264,200.5" id="Line-Copy-28" stroke="#010101" stroke-width="3" opacity="0.228143601"></path>
        <path d="M270,200.5 L310,200.5" id="Line-Copy-33" stroke="#010101" stroke-width="3" opacity="0.228143601"></path>
        <rect id="Rectangle" stroke="#010101" stroke-width="3" x="271.5" y="228.5" width="7" height="7"></rect>
    </g>
</svg>