<?xml version="1.0" encoding="UTF-8"?>
<svg width="357px" height="247px" viewBox="0 0 357 247" version="1.1" xmlns="http://www.w3.org/2000/svg" xmlns:xlink="http://www.w3.org/1999/xlink">
    <!-- Generator: Sketch 58 (84663) - https://sketch.com -->
    <title>portfolio-3-col</title>
    <desc>Created with Sketch.</desc>
    <g id="3-col" stroke="none" stroke-width="1" fill="none" fill-rule="evenodd" transform="translate(0.000000, 0.000000)">
        <rect fill="#FFFFFF" x="0" y="0" width="356" height="247"></rect>
        <rect id="Rectangle-Copy-3" stroke="#010101" stroke-width="3" fill="#FFFFFF" x="1.5" y="1.5" width="353" height="244"></rect>
        <rect id="Rectangle-Copy" stroke="#010101" stroke-width="3" fill="#F4F6FA" x="1.5" y="1.5" width="353" height="35"></rect>
        <g id="logo-dark" transform="translate(40.000000, 13.000000)" fill="#161B25" fill-rule="nonzero">
            <path d="M8,3.3976834 C8,4.03474903 7.87817259,4.58687259 7.6751269,5.01158301 C7.43147208,5.43629344 7.14720812,5.81853282 6.74111675,6.07335907 C6.33502538,6.32818533 5.88832487,6.54054054 5.40101523,6.66795367 C4.91370558,6.7953668 4.3857868,6.83783784 3.81725888,6.83783784 L2.55837563,6.83783784 L2.55837563,11 L0,11 L0,0 L3.85786802,0 C4.42639594,0 4.95431472,0.0424710425 5.4822335,0.16988417 C5.96954315,0.297297297 6.41624365,0.467181467 6.78172589,0.764478764 C7.14720812,1.01930502 7.43147208,1.35907336 7.6751269,1.82625483 C7.87817259,2.25096525 8,2.76061776 8,3.3976834 Z M5.44162437,3.3976834 C5.44162437,3.14285714 5.40101523,2.93050193 5.27918782,2.76061776 C5.19796954,2.59073359 5.03553299,2.46332046 4.87309645,2.37837838 C4.7106599,2.29343629 4.50761421,2.20849421 4.30456853,2.20849421 C4.10152284,2.16602317 3.89847716,2.16602317 3.65482234,2.16602317 L2.55837563,2.16602317 L2.55837563,4.75675676 L3.6142132,4.75675676 C3.85786802,4.75675676 4.06091371,4.75675676 4.30456853,4.71428571 C4.54822335,4.67181467 4.7106599,4.58687259 4.87309645,4.5019305 C5.03553299,4.41698842 5.19796954,4.24710425 5.27918782,4.07722008 C5.40101523,3.86486486 5.44162437,3.65250965 5.44162437,3.3976834 Z" id="Shape"></path>
            <path d="M21,5.95620438 C21,6.87591241 20.8309859,7.66423358 20.5352113,8.40875912 C20.2394366,9.15328467 19.8169014,9.81021898 19.2676056,10.3357664 C18.7183099,10.8613139 18.084507,11.2554745 17.3661972,11.5620438 C16.6478873,11.8686131 15.8450704,12 15,12 C14.1549296,12 13.3521127,11.8686131 12.6338028,11.5620438 C11.915493,11.2554745 11.2816901,10.8613139 10.7323944,10.3357664 C10.1830986,9.81021898 9.8028169,9.15328467 9.46478873,8.40875912 C9.16901408,7.66423358 9,6.83211679 9,5.95620438 C9,5.03649635 9.16901408,4.20437956 9.46478873,3.50364964 C9.76056338,2.75912409 10.1830986,2.1459854 10.7323944,1.62043796 C11.2816901,1.09489051 11.8732394,0.700729927 12.6338028,0.437956204 C13.3521127,0.175182482 14.1549296,0 15,0 C15.8450704,0 16.6478873,0.131386861 17.3661972,0.437956204 C18.084507,0.700729927 18.7183099,1.09489051 19.2676056,1.62043796 C19.8169014,2.1459854 20.1971831,2.75912409 20.5352113,3.50364964 C20.8309859,4.20437956 21,5.03649635 21,5.95620438 Z M18.1690141,5.95620438 C18.1690141,5.47445255 18.084507,4.99270073 17.9577465,4.55474453 C17.7887324,4.11678832 17.5774648,3.76642336 17.3239437,3.45985401 C17.0704225,3.15328467 16.7323944,2.93430657 16.3521127,2.75912409 C15.971831,2.58394161 15.5492958,2.49635036 15.084507,2.49635036 C14.6197183,2.49635036 14.1971831,2.58394161 13.8169014,2.75912409 C13.4366197,2.93430657 13.0985915,3.19708029 12.8450704,3.45985401 C12.5492958,3.76642336 12.3380282,4.11678832 12.2112676,4.55474453 C12.0422535,4.99270073 12,5.43065693 12,5.95620438 C12,6.48175182 12.084507,6.96350365 12.2112676,7.35766423 C12.3802817,7.79562044 12.5915493,8.1459854 12.8450704,8.45255474 C13.0985915,8.75912409 13.4366197,9.02189781 13.8169014,9.19708029 C14.1971831,9.37226277 14.6197183,9.45985401 15.084507,9.45985401 C15.5492958,9.45985401 15.971831,9.37226277 16.3521127,9.19708029 C16.7323944,9.02189781 17.0704225,8.75912409 17.3239437,8.45255474 C17.6197183,8.1459854 17.8309859,7.75182482 17.9577465,7.35766423 C18.084507,6.91970803 18.1690141,6.4379562 18.1690141,5.95620438 Z" id="Shape"></path>
            <polygon id="Path" points="32.8426667 11 30.1973333 11 28.0213333 3.55384615 27.9786667 3.55384615 25.8026667 11 23.1573333 11 20 6.10622664e-16 22.8586667 6.10622664e-16 24.608 7.31923077 24.6506667 7.31923077 26.6133333 0 29.3866667 0 31.392 7.31923077 31.4346667 7.31923077 33.2266667 0 36 0"></polygon>
            <polygon id="Path" points="37 11 37 0 44.6906077 0 44.6906077 2.24230769 39.6519337 2.24230769 39.6519337 4.31538462 44.4254144 4.31538462 44.4254144 6.43076923 39.6519337 6.43076923 39.6519337 8.71538462 45 8.71538462 45 11"></polygon>
            <path d="M51.9009434,11 L49.5235849,6.64230769 L48.6320755,6.64230769 L48.6320755,11 L46,11 L46,0 L50.2028302,0 C50.7122642,0 51.2641509,0.0423076923 51.7311321,0.169230769 C52.240566,0.296153846 52.6650943,0.465384615 53.0896226,0.719230769 C53.4716981,0.973076923 53.8113208,1.31153846 54.0660377,1.73461538 C54.3207547,2.15769231 54.4056604,2.66538462 54.4056604,3.3 C54.4056604,4.06153846 54.1933962,4.65384615 53.8113208,5.16153846 C53.3867925,5.66923077 52.8349057,6.05 52.1132075,6.26153846 L55,10.9576923 L51.9009434,10.9576923 L51.9009434,11 Z M51.8160377,3.38461538 C51.8160377,3.13076923 51.7735849,2.91923077 51.6462264,2.75 C51.5188679,2.58076923 51.3915094,2.45384615 51.2216981,2.36923077 C51.0518868,2.28461538 50.8396226,2.24230769 50.6273585,2.2 C50.4150943,2.15769231 50.2028302,2.15769231 49.990566,2.15769231 L48.5471698,2.15769231 L48.5471698,4.69615385 L49.8207547,4.69615385 C50.0330189,4.69615385 50.245283,4.69615385 50.5,4.65384615 C50.7122642,4.61153846 50.9245283,4.56923077 51.1367925,4.44230769 C51.3066038,4.35769231 51.4764151,4.23076923 51.6037736,4.01923077 C51.7311321,3.89230769 51.8160377,3.63846154 51.8160377,3.38461538 Z" id="Shape"></path>
            <path d="M58,9.52054795 C58,9.93150685 57.8378378,10.3013699 57.5540541,10.5890411 C57.2702703,10.8767123 56.9054054,11 56.5,11 C56.2972973,11 56.0945946,10.9589041 55.9324324,10.8767123 C55.7297297,10.7945205 55.6081081,10.7123288 55.4459459,10.5479452 C55.3243243,10.4246575 55.2027027,10.260274 55.1216216,10.0958904 C55.0405405,9.93150685 55,9.7260274 55,9.52054795 C55,9.31506849 55.0405405,9.10958904 55.1216216,8.94520548 C55.2027027,8.78082192 55.3243243,8.61643836 55.4459459,8.45205479 C55.5675676,8.32876712 55.7297297,8.20547945 55.9324324,8.12328767 C56.1351351,8.04109589 56.2972973,8 56.5,8 C56.9054054,8 57.2702703,8.12328767 57.5540541,8.4109589 C57.8783784,8.73972603 58,9.10958904 58,9.52054795 Z" id="Path"></path>
        </g>
        <rect id="Rectangle-Copy-7" stroke="#010101" stroke-width="3" fill="#F4F6FA" x="41.5" y="65.5" width="83" height="65"></rect>
        <path d="M39.5,151 L118.5,151" id="Line-Copy-5" stroke="#010101" stroke-width="3" opacity="0.228143601"></path>
        <path d="M131,151 L210,151" id="Line-Copy-7" stroke="#010101" stroke-width="3" opacity="0.228143601"></path>
        <path d="M224,151 L303,151" id="Line-Copy-9" stroke="#010101" stroke-width="3" opacity="0.228143601"></path>
        <path d="M39.5,161 L118.5,161" id="Line-Copy-6" stroke="#010101" stroke-width="3" opacity="0.228143601"></path>
        <path d="M131,161 L210,161" id="Line-Copy-8" stroke="#010101" stroke-width="3" opacity="0.228143601"></path>
        <path d="M224,161 L303,161" id="Line-Copy-10" stroke="#010101" stroke-width="3" opacity="0.228143601"></path>
        <path d="M40,141 L98.5,141" id="Line-Copy-14" stroke="#010101" stroke-width="3"></path>
        <path d="M131,141 L189.5,141" id="Line-Copy-15" stroke="#010101" stroke-width="3"></path>
        <path d="M224,141 L282.5,141" id="Line-Copy-16" stroke="#010101" stroke-width="3"></path>
        <rect id="Rectangle-Copy-10" stroke="#010101" stroke-width="3" fill="#F4F6FA" x="41.5" y="180.5" width="83" height="65"></rect>
        <rect id="Rectangle-Copy-8" stroke="#010101" stroke-width="3" fill="#F4F6FA" x="132.5" y="65.5" width="85" height="65"></rect>
        <rect id="Rectangle-Copy-11" stroke="#010101" stroke-width="3" fill="#F4F6FA" x="132.5" y="180.5" width="85" height="65"></rect>
        <rect id="Rectangle-Copy-9" stroke="#010101" stroke-width="3" fill="#F4F6FA" x="225.5" y="65.5" width="85" height="65"></rect>
        <rect id="Rectangle-Copy-12" stroke="#010101" stroke-width="3" fill="#F4F6FA" x="225.5" y="180.5" width="85" height="65"></rect>
    </g>
</svg>