<?xml version="1.0" encoding="UTF-8"?>
<svg width="356px" height="247px" viewBox="0 0 356 247" version="1.1" xmlns="http://www.w3.org/2000/svg" xmlns:xlink="http://www.w3.org/1999/xlink">
    <!-- Generator: Sketch 58 (84663) - https://sketch.com -->
    <title>header-Hamburger</title>
    <desc>Created with Sketch.</desc>
    <g id="Hamburger" stroke="none" stroke-width="1" fill="none" fill-rule="evenodd">
        <rect id="Rectangle" stroke="#010101" stroke-width="3" fill="#FFFFFF" x="1.5" y="1.5" width="353" height="244"></rect>
        <rect id="Rectangle-Copy" stroke="#010101" stroke-width="3" fill="#F4F6FA" x="1.5" y="1.5" width="353" height="57"></rect>
        <path d="M299.386364,38.5 L315.613636,38.5" id="Line-Copy" stroke="#010101" stroke-width="3" stroke-linecap="square"></path>
        <path d="M299.386364,22.5 L315.613636,22.5" id="Line-Copy-2" stroke="#010101" stroke-width="3" stroke-linecap="square"></path>
        <path d="M299.386364,30.5 L315.613636,30.5" id="Line-Copy-3" stroke="#010101" stroke-width="3" stroke-linecap="square"></path>
        <g id="logo-dark" transform="translate(40.000000, 23.000000)" fill="#161B25" fill-rule="nonzero">
            <path d="M11,4.63320463 C11,5.5019305 10.8324873,6.25482625 10.5532995,6.83397683 C10.2182741,7.41312741 9.82741117,7.93436293 9.26903553,8.28185328 C8.7106599,8.62934363 8.0964467,8.91891892 7.42639594,9.09266409 C6.75634518,9.26640927 6.03045685,9.32432432 5.24873096,9.32432432 L3.5177665,9.32432432 L3.5177665,15 L0,15 L0,0 L5.30456853,0 C6.08629442,0 6.81218274,0.0579150579 7.53807107,0.231660232 C8.20812183,0.405405405 8.82233503,0.637065637 9.3248731,1.04247104 C9.82741117,1.38996139 10.2182741,1.85328185 10.5532995,2.49034749 C10.8324873,3.06949807 11,3.76447876 11,4.63320463 Z M7.4822335,4.63320463 C7.4822335,4.28571429 7.42639594,3.996139 7.25888325,3.76447876 C7.14720812,3.53281853 6.92385787,3.35907336 6.70050761,3.24324324 C6.47715736,3.12741313 6.19796954,3.01158301 5.91878173,3.01158301 C5.63959391,2.95366795 5.36040609,2.95366795 5.02538071,2.95366795 L3.5177665,2.95366795 L3.5177665,6.48648649 L4.96954315,6.48648649 C5.30456853,6.48648649 5.58375635,6.48648649 5.91878173,6.42857143 C6.25380711,6.37065637 6.47715736,6.25482625 6.70050761,6.13899614 C6.92385787,6.02316602 7.14720812,5.79150579 7.25888325,5.55984556 C7.42639594,5.27027027 7.4822335,4.98069498 7.4822335,4.63320463 Z" id="Shape"></path>
            <path d="M28,7.94160584 C28,9.16788321 27.7746479,10.2189781 27.3802817,11.2116788 C26.9859155,12.2043796 26.4225352,13.080292 25.6901408,13.7810219 C24.9577465,14.4817518 24.1126761,15.0072993 23.1549296,15.4160584 C22.1971831,15.8248175 21.1267606,16 20,16 C18.8732394,16 17.8028169,15.8248175 16.8450704,15.4160584 C15.8873239,15.0072993 15.0422535,14.4817518 14.3098592,13.7810219 C13.5774648,13.080292 13.0704225,12.2043796 12.6197183,11.2116788 C12.2253521,10.2189781 12,9.10948905 12,7.94160584 C12,6.71532847 12.2253521,5.60583942 12.6197183,4.67153285 C13.0140845,3.67883212 13.5774648,2.86131387 14.3098592,2.16058394 C15.0422535,1.45985401 15.8309859,0.934306569 16.8450704,0.583941606 C17.8028169,0.233576642 18.8732394,0 20,0 C21.1267606,0 22.1971831,0.175182482 23.1549296,0.583941606 C24.1126761,0.934306569 24.9577465,1.45985401 25.6901408,2.16058394 C26.4225352,2.86131387 26.9295775,3.67883212 27.3802817,4.67153285 C27.7746479,5.60583942 28,6.71532847 28,7.94160584 Z M24.2253521,7.94160584 C24.2253521,7.29927007 24.1126761,6.65693431 23.943662,6.0729927 C23.7183099,5.48905109 23.4366197,5.02189781 23.0985915,4.61313869 C22.7605634,4.20437956 22.3098592,3.91240876 21.8028169,3.67883212 C21.2957746,3.44525547 20.7323944,3.32846715 20.1126761,3.32846715 C19.4929577,3.32846715 18.9295775,3.44525547 18.4225352,3.67883212 C17.915493,3.91240876 17.4647887,4.26277372 17.1267606,4.61313869 C16.7323944,5.02189781 16.4507042,5.48905109 16.2816901,6.0729927 C16.056338,6.65693431 16,7.24087591 16,7.94160584 C16,8.64233577 16.1126761,9.28467153 16.2816901,9.81021898 C16.5070423,10.3941606 16.7887324,10.8613139 17.1267606,11.270073 C17.4647887,11.6788321 17.915493,12.0291971 18.4225352,12.2627737 C18.9295775,12.4963504 19.4929577,12.6131387 20.1126761,12.6131387 C20.7323944,12.6131387 21.2957746,12.4963504 21.8028169,12.2627737 C22.3098592,12.0291971 22.7605634,11.6788321 23.0985915,11.270073 C23.4929577,10.8613139 23.7746479,10.3357664 23.943662,9.81021898 C24.1126761,9.22627737 24.2253521,8.58394161 24.2253521,7.94160584 Z" id="Shape"></path>
            <polygon id="Path" points="43.856 15 40.384 15 37.528 4.84615385 37.472 4.84615385 34.616 15 31.144 15 27 8.32667268e-16 30.752 8.32667268e-16 33.048 9.98076923 33.104 9.98076923 35.68 0 39.32 0 41.952 9.98076923 42.008 9.98076923 44.36 0 48 0"></polygon>
            <polygon id="Path" points="49 15 49 0 58.6132597 0 58.6132597 3.05769231 52.3149171 3.05769231 52.3149171 5.88461538 58.281768 5.88461538 58.281768 8.76923077 52.3149171 8.76923077 52.3149171 11.8846154 59 11.8846154 59 15"></polygon>
            <path d="M68.8679245,15 L65.6981132,9.05769231 L64.509434,9.05769231 L64.509434,15 L61,15 L61,0 L66.6037736,0 C67.2830189,0 68.0188679,0.0576923077 68.6415094,0.230769231 C69.3207547,0.403846154 69.8867925,0.634615385 70.4528302,0.980769231 C70.9622642,1.32692308 71.4150943,1.78846154 71.754717,2.36538462 C72.0943396,2.94230769 72.2075472,3.63461538 72.2075472,4.5 C72.2075472,5.53846154 71.9245283,6.34615385 71.4150943,7.03846154 C70.8490566,7.73076923 70.1132075,8.25 69.1509434,8.53846154 L73,14.9423077 L68.8679245,14.9423077 L68.8679245,15 Z M68.754717,4.61538462 C68.754717,4.26923077 68.6981132,3.98076923 68.5283019,3.75 C68.3584906,3.51923077 68.1886792,3.34615385 67.9622642,3.23076923 C67.7358491,3.11538462 67.4528302,3.05769231 67.1698113,3 C66.8867925,2.94230769 66.6037736,2.94230769 66.3207547,2.94230769 L64.3962264,2.94230769 L64.3962264,6.40384615 L66.0943396,6.40384615 C66.3773585,6.40384615 66.6603774,6.40384615 67,6.34615385 C67.2830189,6.28846154 67.5660377,6.23076923 67.8490566,6.05769231 C68.0754717,5.94230769 68.3018868,5.76923077 68.4716981,5.48076923 C68.6415094,5.30769231 68.754717,4.96153846 68.754717,4.61538462 Z" id="Shape"></path>
            <path d="M77,13.0273973 C77,13.5753425 76.7837838,14.0684932 76.4054054,14.4520548 C76.027027,14.8356164 75.5405405,15 75,15 C74.7297297,15 74.4594595,14.9452055 74.2432432,14.8356164 C73.972973,14.7260274 73.8108108,14.6164384 73.5945946,14.3972603 C73.4324324,14.2328767 73.2702703,14.0136986 73.1621622,13.7945205 C73.0540541,13.5753425 73,13.3013699 73,13.0273973 C73,12.7534247 73.0540541,12.4794521 73.1621622,12.260274 C73.2702703,12.0410959 73.4324324,11.8219178 73.5945946,11.6027397 C73.7567568,11.4383562 73.972973,11.2739726 74.2432432,11.1643836 C74.5135135,11.0547945 74.7297297,11 75,11 C75.5405405,11 76.027027,11.1643836 76.4054054,11.5479452 C76.8378378,11.9863014 77,12.4794521 77,13.0273973 Z" id="Path"></path>
        </g>
    </g>
</svg>